<svg xmlns="http://www.w3.org/2000/svg" width="792" height="792" viewBox="0 0 594 594">
  <path fill="#45b0d8" d="M233.69 80.04c22.5 5.8 45.05 11.38 67.61 16.94-16.63 32.41-33.89 64.5-50.42 96.97-7.69 14.93-15.84 29.63-23.04 44.82-1.77 3.68-3.72 7.43-6.91 10.11-3.97 3.39-8.12 6.87-10.37 11.71-4.48 8.12-3.6 17.92-7.8 26.13-5.6 11.04-11.22 22.07-17.04 32.99-5.98 11.8-11.94 23.67-19.54 34.54.81-6.14 2.3-12.16 3.92-18.12 17.42-69.78 34.35-139.68 51.57-209.51 3.91-15.55 7.63-31.16 12.02-46.58Z"/>
  <path fill="#3884c3" d="M309.34 100.34c2.95-5.75 6.13-11.37 9.46-16.9 15.53 7.94 30.92 16.15 46.28 24.4 5.94 2.96 11.9 5.89 17.67 9.18-2.56 3.01-5.15 5.99-7.92 8.81-37.17 37.17-74.15 74.52-111.18 111.83-3.06 2.87-5.98 7.01-10.64 6.92-6.4.19-12.8-.15-19.2.07 7.92-16.51 16.82-32.52 24.95-48.93 16.79-31.83 33.33-63.8 50.58-95.38Z"/>
  <g fill="#6ab886">
    <path d="M151.39 100.23c11.54.01 23.07.36 34.61.41 11.13.11 22.27-.14 33.38.47-7.93 35.14-17.03 70-25.23 105.08-5.88 22.37-11.05 44.93-16.56 67.39-9.15 35.12-16.89 70.63-27.59 105.33-1.33 4.51-3.46 8.75-5.99 12.71-.57-5.86-.44-11.75-.12-17.62.68-11.31.33-22.65 1.04-33.96.85-13.01.5-26.06 1.15-39.07.56-12.32.39-24.65.92-36.96.72-13.3.43-26.62 1.24-39.91.73-24.7 1.12-49.4 2.2-74.09 0-16.6 1.24-33.17.95-49.78ZM141.68 428.54c-.12-7.6 2.25-14.93 3.95-22.25 8.39 4.63 17.15 8.55 25.73 12.79-1.08 4.92-1.66 10.04-3.81 14.64-3.13.59-6.25-.36-9.31-.91-5.54-1.31-11.32-1.93-16.56-4.27ZM138.77 436.87c9.06 1.57 18.09 3.36 27.2 4.62-.52 2.81-.89 5.7-2.03 8.34-8.08 2.78-16.77 3.09-25.23 3.63-.23-5.53-.2-11.06.06-16.59Z"/>
  </g>
  <g fill="#6f4994">
    <path d="M402.06 110.06c2.41-2.52 4.89-5.02 7.79-6.98 2.92 1.63 5.34 4 7.81 6.23 15.69 14.83 32.15 28.88 46.94 44.64-10.39 6.27-21.18 11.87-31.68 17.96-12.06 7.06-24.56 13.31-36.57 20.45-27.63 15.3-55.13 30.83-82.6 46.42-4.52 2.68-9.22 5.77-14.7 5.68-10.26-.01-20.54.08-30.8-.2 9.67-10 19.88-19.46 29.48-29.53 34.58-35.09 69.53-69.81 104.33-104.67ZM177.15 352.37c5.08-6.1 9.13-13.01 14.68-18.73-1.19 9.66-3.83 19.07-6.74 28.34-2.83-3.05-5.44-6.29-7.94-9.61ZM161.6 372.9c1.91-5.78 6.34-10.2 9.6-15.22 3.42 3.96 7.4 7.44 10.5 11.66 1.34 1.6.77 3.78.45 5.64-.86 4.04-2.05 8.01-3.06 12.02-5.67-4.89-12.72-8.22-17.49-14.1Z"/>
  </g>
  <g fill="#f5b24a">
    <path d="M88.29 138.3c18.18-4.6 36.33-9.29 54.43-14.15-.06 11.95-.04 23.9-.57 35.83-.76 10.98-.37 22-1.08 32.98-.84 12-.15 24.05-1.01 36.05-1.08 13.66-.25 27.37-1.13 41.03-.74 11.93-.15 23.91-1.08 35.84-.73 11.35-.11 22.75-.93 34.1-.74 11.66-.21 23.36-.96 35.03-1.02 18.46.38 37.03-1.93 55.42-3.06-10.88-4.84-22.05-7.38-33.07-5.25-22.11-9.53-44.44-14.23-66.67-4.42-19.77-8.8-39.55-12.72-59.42-4.82-24.58-10.62-48.96-15.44-73.54-2.56-12.38-5.2-24.76-7.91-37.12-1.23-5.79-3.16-11.5-3.44-17.46 4.62-2.94 10.21-3.45 15.38-4.85ZM139.86 461.68c7.77-.72 15.44-2.19 23.1-3.63-1.43 4.29-1.32 10.66-6.42 12.35-4.55 1.72-9.33 2.72-13.94 4.27a274.91 274.91 0 0 1-2.74-12.99ZM146.23 481.79c3.59-.93 7.17-1.85 10.74-2.83-1.33 4.9-3.28 9.6-5.81 14.01-1.72-3.69-3.33-7.44-4.93-11.18Z"/>
  </g>
  <g fill="#9bcb63">
    <path d="M473.83 158.84c5.82-3.21 11.81-6.09 17.55-9.43 2.25 2.84 4.56 5.66 6.51 8.73 11.75 19.68 24.82 38.53 37.21 57.8 10.37 16.26 20.85 32.45 31.29 48.67 4.58 7.38 9.55 14.53 13.73 22.16-5.09 3.08-10.2 6.11-15.32 9.13-2.99 1.68-6.11 3.57-9.64 3.67-4.26.11-8.51-.34-12.76-.55-.49-4.53-.57-9.37-3-13.38-3.55-5.74-9.74-9.79-16.43-10.68-5.29-.76-10.65-.39-15.97-.38-42.33.05-84.66-.02-126.99.13-5.29-.25-11.65 1.19-15.92-2.77-4.43-4.69-5.7-11.37-9.63-16.4-4.72-6.1-12.02-10.2-19.73-10.86-4.38-.43-8.8-.42-13.2-.64 7.7-4.97 15.85-9.16 23.78-13.74 42.75-23.98 85.71-47.59 128.52-71.46ZM150.44 398.79c1.07-6.49 4.72-12.16 7.29-18.12 6.26 5.05 12.87 9.65 19.28 14.52-1.23 5.3-2.55 10.58-3.99 15.83-4.94-2.47-10.04-4.63-15.04-6.99-2.71-1.4-5.65-2.75-7.54-5.24Z"/>
  </g>
  <path fill="#d77f41" d="M10.65 203.26c19.57-11.25 39.66-21.55 59.46-32.39 3.59 14.42 6.1 29.07 9.57 43.52 9.27 44.57 18.67 89.12 28.28 133.63 6.56 29.79 12.63 59.69 19.75 89.35 1.95 9.61 4.81 19.11 5.26 28.96-6.67-12.73-11.98-26.1-18.31-38.99-6.07-12.09-11.15-24.64-17.2-36.74-8.19-17.79-16.79-35.4-24.8-53.27-8.88-18.57-17.15-37.41-26.01-55.97-12.04-26.02-24.37-51.9-36-78.1Z"/>
  <g fill="#2d3843">
    <path d="M223.57 257.57c5.69-4.67 13.42-4.84 20.43-4.67 28.68.25 57.36-.05 86.04.06 6.28.06 12.96 1.9 17.23 6.76 4.28 5.12 5.55 12.05 9.86 17.15 3.54 4.45 9.18 6.89 14.84 6.7 47.67-.13 95.35.02 143.02-.08 5.35.05 11.56-.21 15.66 3.86 3.29 2.9 3 7.63 3.34 11.62-85.66.15-171.33.02-256.99-.01-8.35.12-17.03-.25-24.87 3.15-9.57 3.6-17.02 11.48-21.25 20.67-18.91 42.39-39.73 83.89-58.75 126.23 5.94-21.37 10.65-43.04 16.12-64.52 8.76-35.72 17.84-71.37 26.02-107.23 1.66-7.04 3.06-15.11 9.3-19.69Z"/>
    <path d="M260.45 308.71c2.81-.62 5.68-.82 8.55-.89 90.33-.05 180.67.06 271.01-.1 6.47.27 13.82-1.23 19.47 2.79 4.85 3.39 5.52 10.23 3.38 15.38-2.69 6.49-6.03 12.69-8.86 19.11-23.41 48.47-47.33 96.68-70.92 145.06-3.75 7.54-6.69 16.07-13.65 21.36-5.29 3.92-11.81 6.13-18.38 6.39-93.71.08-187.41.01-281.12.04-4.61.09-9.84-1.08-12.46-5.26-3.23-4.94-1.11-11.08 1.1-15.96 6.09-12.96 11.6-26.19 18.17-38.91 4.73-9.09 8.73-18.52 13.29-27.69 7.47-15.01 13.93-30.5 21.43-45.5 7.52-16.14 15.51-32.06 22.58-48.4 2.67-6.08 4.92-12.6 9.57-17.52 4.54-4.76 10.4-8.41 16.84-9.9Z"/>
  </g>
</svg>
