<svg xmlns="http://www.w3.org/2000/svg" width="824" height="824" fill="none">
  <path fill="#2D3843" d="M361.933 421.8c8.134-1.707 16.494-1.107 24.76-1.2 112.44.027 224.88-.013 337.32-.04 9.307.133 18.64-.56 27.934.307 7.56.613 14.613 6.866 14.72 14.72.28 10.066-6.414 18.36-9.947 27.36C722.373 534.92 686.533 606.187 651.84 678c-4.12 8.387-10.987 15.547-19.787 18.973-11.733 5.427-24.906 3.347-37.386 3.654-118.24.08-236.48.04-354.72 0-6.414.173-13.467-2.48-16.267-8.64-3.173-7.16.267-14.84 3.253-21.414 6.494-13.653 12.294-27.613 18.947-41.173 10.333-20.107 19.507-40.773 29.533-61.04 16.067-36.013 34.027-71.147 50.12-107.16 4.2-9.267 7.267-19.467 14.6-26.867 5.987-5.973 13.534-10.586 21.8-12.533Z"/>
  <path fill="#2D3843" d="M306 361.653c4.067-7.746 12.32-12.773 20.907-13.76 8.333-.933 16.733-.293 25.106-.346 34.254 0 68.494-.12 102.747-.04 9.88-.04 20.76 3.8 25.733 12.906 4.68 8.347 7.387 18.654 16.014 24 7.64 5.387 17.413 3.72 26.186 3.88 61.334-.026 122.667-.026 184 0 5.774.08 12.187 1.107 16.174 5.734 3.866 3.88 3.373 9.76 3.72 14.786-115.52.294-231.054-.053-346.574.08-12.146-.266-24.786.814-35.466 7.147-9.907 5.347-17.267 14.48-22.027 24.533-25.2 56.52-52.973 111.854-78.333 168.307 6.573-23.573 11.906-47.467 17.853-71.2 12.88-53.027 26.56-105.867 38.613-159.093 1.374-5.76 2.614-11.64 5.347-16.934Z"/>
  <path fill="#D77F41" d="M209.787 652.64c4.666-1.347 9.346-2.6 14.066-3.76-1.653 6.48-3.946 12.84-7.666 18.453-2.414-4.773-4.494-9.706-6.4-14.693ZM61.973 262.88c15.494-8.04 30.654-16.707 46.134-24.773 3.12 11.893 5.453 23.973 7.946 36.013C128.173 329 139 384.16 151.147 439.04c6.64 31.88 13.693 63.667 20.56 95.507 5.133 25.533 11.68 50.733 17.08 76.213 1.64 6.947 2.946 14.013 3.2 21.173-8.16-15.466-14.774-31.666-22.24-47.466-5.854-11.68-11.32-23.534-16.587-35.494-23.04-48.64-45.72-97.44-68.16-146.36-17.973-38.133-35.64-76.413-53.307-114.68-.946-2.226-1.813-4.466-2.693-6.706 10.747-6.547 21.947-12.294 32.973-18.347Z"/>
  <path fill="#F4B24A" d="M201.32 625.693c10.293-.706 20.373-3.013 30.533-4.706-1.773 5.733-1.613 14.293-8.44 16.48-6.066 2.106-12.373 3.48-18.426 5.626a99.469 99.469 0 0 1-3.667-17.4ZM135.667 193.787a6213.04 6213.04 0 0 0 69.293-18.014c-.107 17.707.133 35.427-1.053 53.094-.707 12.013-.04 24.08-1.054 36.093-1.773 18.493-.186 37.12-1.84 55.627-.866 19.4-.08 38.853-1.493 58.24-.613 12.666.147 25.373-.973 38.026-1.267 15.534-.08 31.147-1.307 46.694-1.267 16.186-.027 32.453-1.613 48.64-.867 23.933.08 47.946-1.987 71.84-1.173-3.2-2.213-6.467-2.933-9.787-5.987-30.533-13.534-60.72-19.547-91.24-6.32-32.347-14.147-64.36-20.613-96.667-6.347-32.4-13.534-64.613-20.387-96.906-5.667-29.747-12.76-59.187-18.707-88.867 7.867-2.933 16.067-4.813 24.214-6.773Z"/>
  <path fill="#6AB886" d="M199.813 592.773c12 1.934 23.92 4.414 35.96 6.12-.586 3.747-.706 7.72-2.506 11.147-10.787 3.387-22.267 4.373-33.52 4.64-.467-7.293-.467-14.613.066-21.907ZM216.507 143.893c12.706-.04 25.4.214 38.106.454 17.494.306 35-.307 52.467.706-6.053 27.787-12.947 55.414-19.827 83.014-6.24 25.333-11.866 50.813-18.6 76.026-7.92 31.734-15.08 63.667-23.44 95.307-9.293 37.813-18.306 75.733-29.626 113.013-2.04 6.96-4.56 13.907-8.92 19.8-1.454-14.44.68-28.893.493-43.36-.227-16.893 1.747-33.72 1.653-50.626-.093-18.227 1.4-36.427 1.347-54.667-.04-17.347 1.467-34.653 1.387-52-.08-12.907 1.346-25.76 1.253-38.667-.08-13.36 1.067-26.68 1.027-40.04 0-10.253.4-20.493 1.04-30.72.96-15.96.28-31.973 1.28-47.92.506-10.106.373-20.213.36-30.32Z"/>
  <path fill="#45B0D8" d="M203.56 581.573c.013-10.066 2.827-19.906 5.373-29.573 11.174 6.107 22.8 11.28 34.16 17.027-1.346 6.56-2.173 13.36-4.986 19.506-4.52.974-9.08-.8-13.534-1.506-7.013-1.734-14.44-2.32-21.013-5.454ZM326.387 117c20.613 5.24 41.253 10.373 61.866 15.64 9.32 2.413 18.84 4.067 28.067 6.933-21.707 42.68-44.547 84.774-66.2 127.467-10.587 20.493-21.72 40.707-31.693 61.507-2.307 4.586-4.427 9.506-8.427 12.893-4.533 3.933-9.467 7.6-12.613 12.827-4.96 7.52-6.734 16.493-8.134 25.253-1.426 9.547-6.84 17.733-11.013 26.253-4.693 9.44-9.587 18.774-14.56 28.067-8.493 16.547-16.64 33.4-27.4 48.627 1.267-10.707 4.507-21.027 7.107-31.454 13.24-54.253 26.853-108.413 40.066-162.666 12.52-51.72 25.187-103.387 38.28-154.96 1.294-5.534 2.84-11 4.654-16.387Z"/>
  <path fill="#3884C3" d="M214.587 542.2c3-8.32 6.32-16.533 10.44-24.36 8.293 6.773 17.24 12.653 25.586 19.333-1.52 7.067-3.213 14.094-5.28 21.027-10.293-5.253-21.506-8.867-30.746-16ZM435.093 129.307c1.494-2.627 3.094-5.187 4.707-7.747 20.747 10.427 41.187 21.48 61.64 32.467 7.88 3.933 15.853 7.68 23.413 12.213-7.2 9.427-16.226 17.187-24.373 25.76-45.347 45.333-90.373 90.973-135.613 136.413-3.64 3.44-7.254 8.28-12.84 7.947-8.494.173-17-.147-25.494.053 9.867-21.226 21.494-41.56 31.787-62.586 25.36-48.294 50.573-96.68 76.773-144.52Z"/>
  <path fill="#6F4994" d="M231.76 503.333c3.227-5.706 7.507-10.733 11.16-16.16 4.693 5.134 9.76 9.96 14.053 15.454 1.694 1.76 1.107 4.333.76 6.493-1.133 5.747-2.853 11.36-4.28 17.04-7.12-5.92-15.426-10.387-21.946-16.987-2.387-1.533-.574-3.96.253-5.84ZM508.747 200.96c18.16-17.893 35.826-36.28 54.32-53.827 12.253 9.68 23.04 21.027 34.853 31.24 12.853 12.187 26.187 23.947 38.093 37.107-12.026 7.56-24.773 13.893-37.04 21.08-18.333 10.693-37.24 20.333-55.533 31.093-36.853 20.387-73.507 41.12-110.12 61.92-6.16 3.96-13.08 7.32-20.613 6.614-12.734-.267-25.48.2-38.2-.36 9.853-10.507 20.506-20.24 30.586-30.534 34.227-35.106 69.08-69.586 103.654-104.333Z"/>
  <path fill="#9BCB63" d="M250.987 479.973c6.746-8.053 11.893-17.373 19.453-24.746-1.613 12.746-5.013 25.24-8.973 37.44-3.96-3.814-7.387-8.147-10.48-12.694ZM510.213 299.213c54.44-29.853 108.374-60.613 163.04-90 6.307 8.167 17.4 25.614 17.4 25.614 14.8 23.32 30.307 46.173 45.187 69.44 13.293 20.893 26.827 41.64 40.16 62.506 5.16 8.52 11.147 16.534 15.587 25.48-8.067 5.04-16.281 9.84-24.561 14.494-7.8 4.72-17.16 1.72-25.653 1.8-.6-6.04-.626-12.507-3.946-17.814-5.654-9.253-16.4-14.84-27.187-14.733-64.92.093-129.854-.04-194.774.187-3.853-.067-8.106-.347-11.08-3.094-5.04-4.453-6.893-11.16-10-16.893-5.826-11.56-18.133-19.373-30.973-20.253-5.466-.387-10.933-.334-16.4-.68 20.614-12.787 42.213-23.907 63.2-36.054Z"/>
</svg>
