<svg viewBox="0 0 35 35" xmlns="http://www.w3.org/2000/svg" fill-rule="evenodd" clip-rule="evenodd" stroke-linejoin="round" stroke-miterlimit="2">
  <path d="M17.08 0c-.614.028-1.425.084-1.593.14-.42.14-.866.53-1.258 1.116-.167.251-.28.474-.251.474l.195-.027a52.701 52.701 0 015.004-.112c2.675.08 5.323.56 7.856 1.423a8.975 8.975 0 00-1.957-1.256A16.318 16.318 0 0018.87.056L17.416 0h-.335z" fill="#213e52" fill-rule="nonzero"/>
  <path d="M14.732.223A18.075 18.075 0 007.045 3.49a15.982 15.982 0 016.15-1.703l.112-.111c.195-.307.559-.726.838-.977.252-.224.56-.391.839-.475.14-.056.056-.056-.252 0z" fill="#3f769a" fill-rule="nonzero"/>
  <path d="M16.605 1.954c-2.907.056-5.702.418-7.771 1.032-.615.168-1.286.42-1.398.503a16.858 16.858 0 00-3.662 5.275l.084-.028.978-.251c1.901-.447 4.529-.754 7.548-.921a93.828 93.828 0 0110.4 0 21.52 21.52 0 00-1.538-5.443 30.968 30.968 0 00-4.64-.167z" fill="#3f769a" fill-rule="nonzero"/>
  <path d="M22.029 2.205l.056.112.503.976a22.303 22.303 0 011.314 4.327l.615.055c3.438.307 6.122.782 7.576 1.396.391.14.754.363.978.53A17.644 17.644 0 0028.85 4.16c-.867-.614-2.348-1.173-4.333-1.591-.895-.168-2.488-.419-2.488-.363z" fill="#213e52" fill-rule="nonzero"/>
  <path d="M6.793 3.796c-.251.111-.559.335-.699.446a17.337 17.337 0 00-4.165 5.36c.224-.196.615-.391 1.062-.587l.28-.111.14-.28a18.474 18.474 0 012.404-3.74c.373-.417.765-.818 1.174-1.2l-.196.112z" fill="#9abed6" fill-rule="nonzero"/>
  <path d="M16.382 8.262c-1.51 0-4.277.111-4.305.14l-.084.39a56.543 56.543 0 00-.587 8.01v.168h8.47c7.632 0 10.651.028 12.496.056l.615.027v-.307a23.8 23.8 0 00-1.425-7.228l-1.314-.307c-2.516-.503-6.178-.838-10.26-.922-.783-.027-2.907-.055-3.606-.027z" fill="#3f769a" fill-rule="nonzero"/>
  <path d="M10.483 8.485c-4.137.335-6.989.837-8.358 1.507-.308.14-.532.307-.671.502L1.062 11.5A17.921 17.921 0 000 17.137l.028-.056h.168l.894-.028c2.711-.065 5.423-.093 8.135-.083h.95v-.419a52.7 52.7 0 01.7-7.731l.056-.335v-.028l-.448.028z" fill="#9abed6" fill-rule="nonzero"/>
  <path d="M32.065 9.685l.112.307a20.902 20.902 0 011.341 7.006v.055h.504l.726.028h.224l.028.056-.056-1.088a18.033 18.033 0 00-1.537-5.694c-.168-.196-.504-.39-1.007-.558l-.335-.112z" fill="#213e52" fill-rule="nonzero"/>
  <path d="M0 18.114a17.45 17.45 0 001.454 6.364l.335.307c.356.222.742.39 1.146.502l-.112-.307a20.904 20.904 0 01-1.341-7.006v-.055H.978l-.726-.028H.028L0 17.835v.279z" fill="#9abed6" fill-rule="nonzero"/>
  <path d="M34.972 17.835v.056h-.168l-.922.028c-2.711.065-5.423.093-8.135.083h-.923v.42a54.175 54.175 0 01-.754 8.093l.642-.056c3.942-.307 6.794-.81 8.163-1.479.308-.14.532-.307.671-.502l.392-1.005a17.916 17.916 0 001.034-5.638z" fill="#213e52" fill-rule="nonzero"/>
  <path d="M2.013 18.226a23.803 23.803 0 001.426 7.229l1.313.307c2.516.502 6.039.837 10.288.949a148.91 148.91 0 007.883-.14l.056-.363a56.54 56.54 0 00.615-8.038v-.168h-8.47c-7.632 0-10.68-.028-12.496-.055h-.615v.279z" fill="#3f769a" fill-rule="nonzero"/>
  <path d="M1.929 25.37c-.084-.083.42.866.531 1.09a17.646 17.646 0 003.69 4.326c.867.67 2.348 1.2 4.333 1.618.895.168 2.46.419 2.46.363l-.056-.111-.475-.977a22.218 22.218 0 01-1.314-4.327l-.615-.055c-3.438-.307-6.122-.782-7.576-1.368a5.057 5.057 0 01-.978-.558z" fill="#9abed6" fill-rule="nonzero"/>
  <path d="M32.54 26.46l.531-1.09c-.224.196-.615.42-1.062.587l-.28.112-.14.279a18.476 18.476 0 01-2.376 3.712c-.388.44-.798.858-1.23 1.256.028 0 .671-.363.895-.558a16.889 16.889 0 003.662-4.299z" fill="#213e52" fill-rule="nonzero"/>
  <path d="M31.142 26.236l-.978.251c-1.901.447-4.529.754-7.548.95a93.828 93.828 0 01-10.4 0l.224 1.227c.336 1.591.783 3.098 1.258 4.075.056.14 0 .14.56.168 2.012.167 4.053.167 5.982.028 2.264-.14 4.305-.475 5.926-.95.587-.167 1.286-.418 1.398-.502a16.579 16.579 0 003.662-5.275l-.084.028z" fill="#3f769a" fill-rule="nonzero"/>
  <path d="M27.955 31.483a15.924 15.924 0 01-6.15 1.703l-.112.111a4.23 4.23 0 01-1.118 1.2c-.2.13-.416.234-.643.308l.979-.168a17.573 17.573 0 007.184-3.237l-.14.083z" fill="#213e52" fill-rule="nonzero"/>
  <path d="M7.967 31.958c.591.501 1.238.932 1.93 1.284a16.603 16.603 0 009.364 1.646c.503-.055 1.035-.474 1.51-1.172l.251-.446h-.195a52.785 52.785 0 01-5.004.111 26.876 26.876 0 01-7.856-1.423z" fill="#3f769a" fill-rule="nonzero"/>
</svg>
