<svg viewBox="0 0 26 26" xmlns="http://www.w3.org/2000/svg">
  <g fill="#1D1D1B">
    <path d="M24.894 12.52C22.299 8.184 18.63 6.25 13 6.25S3.701 8.184 1.106 12.52a.734.734 0 00-.088.48.734.734 0 00.088.48C3.701 17.816 7.37 19.75 13 19.75s9.299-1.934 11.894-6.27c.09-.15.11-.319.088-.48a.734.734 0 00-.088-.48zM13 17.5c-2.481 0-4.5-2.019-4.5-4.5s2.019-4.5 4.5-4.5 4.5 2.019 4.5 4.5-2.019 4.5-4.5 4.5zM2.573 13c1.305-2.096 3.202-4.164 7.02-4.933C8.028 9.151 7 10.957 7 13s1.028 3.849 2.593 4.933c-3.818-.77-5.715-2.837-7.02-4.933zm13.834 4.933C17.972 16.849 19 15.043 19 13s-1.028-3.849-2.593-4.933c3.818.77 5.715 2.837 7.02 4.933-1.305 2.096-3.202 4.164-7.02 4.933z"/>
    <path d="M15.112 12.13l-.112.015c-.748 0-1.37-.59-1.415-1.341a.752.752 0 00-.256-.52.797.797 0 00-.55-.182A2.926 2.926 0 0010.082 13c0 1.608 1.309 2.917 2.917 2.917s2.917-1.309 2.917-2.917c0-.06-.006-.12-.015-.175a.77.77 0 00-.79-.694z"/>
  </g>
</svg>
