<?xml version="1.0" encoding="UTF-8" ?>
<!DOCTYPE svg PUBLIC "-//W3C//DTD SVG 1.1//EN" "http://www.w3.org/Graphics/SVG/1.1/DTD/svg11.dtd">
<svg width="1024pt" height="1024pt" viewBox="0 0 1024 1024" version="1.1" xmlns="http://www.w3.org/2000/svg">
<g id="#ffffffff">
<path fill="#ffffff" opacity="1.00" d=" M 0.00 0.00 L 1024.00 0.00 L 1024.00 1024.00 L 0.00 1024.00 L 0.00 0.00 M 480.84 138.07 C 483.44 139.18 486.17 139.97 488.97 140.44 C 496.31 141.79 503.45 144.27 510.92 144.83 C 510.25 140.81 509.26 136.70 507.03 133.25 C 498.09 133.24 489.60 136.67 480.84 138.07 M 440.61 136.17 C 435.04 156.32 430.13 176.66 425.20 196.98 C 418.89 221.22 413.35 245.66 407.24 269.95 C 396.23 315.24 384.92 360.46 373.76 405.71 C 373.37 407.43 373.31 409.19 373.22 410.95 C 375.75 406.87 378.04 402.64 380.53 398.53 C 387.05 387.79 392.11 376.26 398.24 365.30 C 402.44 356.83 406.98 348.53 411.01 339.98 C 413.00 335.97 412.92 331.39 413.95 327.12 C 415.46 319.28 419.25 311.65 425.63 306.66 C 427.60 304.97 430.20 303.80 431.39 301.37 C 456.51 251.65 482.70 202.47 508.28 152.99 C 503.81 151.55 499.21 150.64 494.62 149.68 C 476.60 145.24 458.67 140.41 440.61 136.17 M 395.58 148.35 C 402.01 148.84 408.49 148.31 414.91 149.09 C 418.66 149.50 422.44 149.34 426.20 149.17 C 424.35 144.75 421.56 140.76 418.21 137.34 C 410.44 140.52 403.04 144.51 395.58 148.35 M 492.64 200.67 C 475.01 233.87 457.64 267.22 440.67 300.76 C 448.18 300.14 455.84 300.98 463.28 300.31 C 469.57 295.34 474.79 289.14 480.59 283.62 C 508.36 255.73 535.99 227.69 563.83 199.86 C 572.45 190.87 581.78 182.51 589.82 172.98 C 568.39 161.97 547.21 150.44 525.79 139.39 C 514.23 159.53 503.50 180.14 492.64 200.67 M 562.00 150.22 C 573.45 155.97 584.81 161.88 596.21 167.74 C 598.65 163.36 596.60 158.25 596.32 153.60 C 595.24 153.20 594.20 152.69 593.05 152.58 C 582.73 151.40 572.35 151.08 562.00 150.22 M 358.73 156.56 C 358.04 165.67 358.71 174.85 357.80 183.96 C 357.67 204.41 356.50 224.83 356.26 245.28 C 354.12 305.85 352.98 366.46 351.01 427.04 C 350.76 434.16 350.24 441.32 350.80 448.43 C 356.68 439.54 358.55 428.82 361.75 418.83 C 363.19 414.72 364.06 410.45 365.08 406.23 C 371.56 383.64 376.49 360.65 382.48 337.93 C 388.62 313.88 393.93 289.62 400.28 265.62 C 404.94 246.78 409.24 227.86 414.00 209.04 C 418.55 191.93 421.99 174.54 426.61 157.45 C 425.08 157.11 423.54 156.75 421.97 156.78 C 401.31 156.72 380.64 156.56 359.99 156.20 C 359.67 156.29 359.04 156.47 358.73 156.56 M 616.41 158.57 C 610.47 165.22 603.70 171.07 597.58 177.55 C 581.73 193.36 565.87 209.17 550.12 225.08 C 524.72 250.03 500.26 275.93 474.56 300.58 C 485.69 300.29 496.83 300.49 507.97 300.45 C 511.80 300.33 515.01 297.98 518.25 296.21 C 524.94 292.12 531.97 288.64 538.73 284.67 C 562.85 270.65 587.46 257.47 611.68 243.60 C 618.61 239.39 626.01 236.02 632.97 231.87 C 645.77 224.36 658.97 217.54 671.67 209.88 C 662.50 200.23 652.63 191.27 642.98 182.11 C 633.88 174.53 625.97 165.57 616.41 158.57 M 320.80 179.72 C 329.07 176.88 337.62 174.93 346.13 172.97 C 342.55 170.16 338.78 167.60 334.78 165.43 C 330.05 170.09 324.43 174.10 320.80 179.72 M 311.03 190.23 C 300.57 193.25 289.82 195.24 279.48 198.68 C 281.49 209.53 284.35 220.20 286.45 231.03 C 290.52 249.34 293.91 267.79 298.03 286.09 C 304.27 314.36 309.59 342.81 315.95 371.05 C 320.53 390.92 324.30 410.96 328.62 430.89 C 331.06 443.19 334.38 455.30 336.64 467.64 C 338.33 474.08 339.08 480.74 341.15 487.08 C 341.73 480.74 341.52 474.36 342.25 468.04 C 342.35 457.01 342.47 445.98 342.69 434.95 C 343.72 423.33 343.38 411.64 343.73 399.99 C 344.68 388.02 344.32 375.99 344.73 364.00 C 345.81 352.36 345.33 340.66 345.76 328.99 C 346.71 316.01 346.33 302.98 346.75 289.97 C 347.96 275.33 347.05 260.60 348.23 245.95 C 348.61 224.03 349.93 202.14 349.67 180.21 C 336.78 183.52 323.96 187.08 311.03 190.23 M 652.87 180.60 C 661.32 188.85 669.40 197.50 678.40 205.16 C 680.02 200.32 681.41 195.37 681.97 190.28 C 672.40 186.68 662.44 184.21 652.87 180.60 M 682.72 213.74 C 631.06 242.74 578.95 270.92 527.57 300.39 C 534.14 300.67 540.89 299.72 547.28 301.76 C 556.02 304.38 563.03 311.40 566.14 319.92 C 568.11 324.94 571.75 330.93 577.92 330.63 C 627.29 330.64 676.67 330.55 726.05 330.51 C 734.55 330.59 743.18 335.25 747.11 342.94 C 749.11 346.71 748.87 351.11 749.30 355.24 C 752.76 355.18 756.23 355.06 759.68 355.46 C 761.82 355.62 764.15 356.32 766.07 354.97 C 773.12 351.04 780.18 347.12 787.01 342.81 C 784.77 337.34 780.79 332.88 777.93 327.76 C 767.26 310.88 756.25 294.22 745.59 277.34 C 733.78 258.88 721.43 240.78 709.77 222.23 C 706.11 216.50 703.08 210.25 698.29 205.34 C 693.28 208.47 687.97 211.06 682.72 213.74 M 260.69 235.63 C 246.49 243.78 231.69 250.87 217.65 259.30 C 230.15 287.28 243.26 315.00 256.22 342.78 C 274.01 381.22 291.69 419.72 309.89 457.96 C 314.10 467.40 318.35 476.82 322.98 486.06 C 326.58 493.25 329.43 500.79 333.05 507.98 C 335.83 513.54 338.19 519.30 340.61 525.03 C 340.05 515.31 337.20 505.93 335.42 496.40 C 329.30 470.69 323.75 444.84 318.26 418.98 C 304.12 355.07 291.29 290.89 277.23 226.97 C 271.53 229.48 266.32 232.95 260.69 235.63 M 728.07 234.88 C 728.83 237.50 730.75 239.49 732.28 241.67 C 737.29 249.19 742.07 256.86 747.07 264.39 C 749.84 260.48 752.39 256.38 754.15 251.91 C 746.08 245.33 736.83 240.45 728.07 234.88 M 761.09 285.00 C 763.15 289.37 766.27 293.11 768.71 297.27 C 773.58 305.42 778.37 313.63 783.72 321.48 C 785.57 318.50 787.63 315.65 789.86 312.93 C 781.43 302.51 770.62 294.33 761.09 285.00 M 437.11 310.14 C 430.81 312.07 425.51 317.21 423.79 323.62 C 421.16 332.39 419.61 341.44 417.24 350.28 C 413.26 368.05 408.76 385.68 404.43 403.36 C 395.85 437.25 387.90 471.30 379.26 505.17 C 397.77 462.89 418.85 421.78 437.50 379.56 C 440.17 373.65 444.04 368.24 448.98 364.02 C 456.55 357.96 466.32 354.80 476.01 355.13 C 564.18 355.13 652.35 355.04 740.53 355.19 C 741.10 351.11 740.98 346.27 737.62 343.35 C 734.64 340.20 730.12 339.56 726.00 339.55 C 676.64 339.53 627.29 339.52 577.93 339.56 C 572.61 339.63 567.51 336.93 564.14 332.90 C 559.75 327.82 558.61 320.82 554.31 315.69 C 549.96 310.87 543.29 308.99 536.98 308.89 C 509.66 308.85 482.34 308.93 455.02 308.89 C 449.05 308.97 442.89 308.29 437.11 310.14 M 467.44 364.67 C 461.24 366.15 455.60 369.62 451.09 374.08 C 446.10 379.03 443.81 385.82 441.08 392.11 C 428.89 419.65 415.10 446.43 402.87 473.95 C 398.60 482.97 394.02 491.86 389.96 500.99 C 385.15 511.38 379.59 521.42 375.00 531.92 C 371.57 539.81 367.78 547.53 364.40 555.45 C 362.56 559.70 361.75 565.15 364.81 569.05 C 367.27 572.61 371.81 573.92 375.95 573.82 C 470.00 573.87 564.04 573.83 658.08 573.83 C 664.19 573.65 670.14 571.52 675.29 568.28 C 681.64 564.00 685.09 556.90 688.13 550.11 C 705.72 513.79 723.71 477.67 741.38 441.38 C 750.91 421.56 760.84 401.93 769.91 381.90 C 771.64 377.59 771.62 372.18 768.53 368.49 C 765.80 365.02 761.23 363.71 756.98 363.74 C 663.32 363.82 569.67 363.80 476.02 363.80 C 473.14 363.82 470.26 364.08 467.44 364.67 M 384.21 408.25 C 386.60 411.73 389.09 415.15 392.16 418.08 C 394.84 408.73 397.73 399.34 398.87 389.66 C 393.05 395.05 389.54 402.40 384.21 408.25 M 368.29 429.26 C 373.71 434.51 380.52 438.04 385.96 443.22 C 387.52 437.71 388.92 432.15 390.01 426.53 C 385.89 422.32 382.19 417.72 378.07 413.53 C 375.19 419.02 370.24 423.28 368.29 429.26 M 363.94 437.29 C 362.19 443.05 359.01 448.27 357.39 454.06 C 356.95 455.93 359.22 456.62 360.41 457.50 C 366.65 461.37 373.83 463.37 380.00 467.34 C 381.43 461.99 382.71 456.60 383.98 451.20 C 379.20 447.19 373.85 443.96 369.03 440.02 C 367.48 438.84 366.12 436.89 363.94 437.29 M 348.30 484.69 C 356.81 487.53 365.80 488.51 374.51 490.60 C 376.16 485.50 377.33 480.27 378.46 475.04 C 369.86 470.69 360.84 467.17 352.65 462.06 C 350.57 469.47 349.25 477.06 348.30 484.69 M 345.74 509.34 C 354.35 509.68 362.78 507.57 371.21 506.17 C 372.02 503.33 372.54 500.43 372.84 497.51 C 363.77 496.07 354.64 494.83 345.74 492.54 C 345.39 498.13 345.29 503.75 345.74 509.34 M 347.07 517.47 C 347.45 521.96 348.28 526.41 349.73 530.69 C 355.01 528.22 361.08 527.98 366.22 525.25 C 368.19 521.83 369.00 517.90 369.84 514.08 C 362.23 515.06 354.80 517.64 347.07 517.47 M 353.16 537.63 C 354.86 541.47 356.41 545.37 358.02 549.24 C 361.16 544.93 362.46 539.69 363.91 534.65 C 360.46 536.08 356.80 536.83 353.16 537.63 M 793.70 651.15 C 793.67 691.96 793.64 732.77 793.60 773.58 C 801.25 773.27 808.90 773.41 816.56 773.32 C 816.56 732.62 816.07 691.90 816.67 651.21 C 809.01 651.43 801.35 651.33 793.70 651.15 M 659.42 652.63 C 651.53 654.81 649.10 665.88 653.93 671.98 C 657.48 676.96 664.81 677.71 669.99 675.01 C 678.05 671.27 677.76 657.92 670.02 653.96 C 666.87 652.05 662.94 651.77 659.42 652.63 M 193.83 658.28 C 193.68 684.19 193.70 710.09 193.84 736.00 C 193.74 748.61 194.61 761.23 193.87 773.83 C 201.68 773.86 209.49 773.77 217.30 773.87 C 217.01 756.58 217.55 739.27 216.83 721.98 C 216.63 711.35 216.99 700.67 215.82 690.08 C 218.18 694.44 219.20 699.35 220.90 703.98 C 226.13 718.83 231.54 733.63 236.59 748.55 C 239.43 757.16 242.97 765.55 245.12 774.38 C 250.76 774.44 256.40 774.29 262.04 774.42 C 269.66 753.61 278.05 733.09 285.24 712.13 C 288.37 704.88 290.22 697.15 293.44 689.94 C 292.06 705.27 292.68 720.67 292.46 736.04 C 292.34 748.76 292.50 761.47 292.35 774.19 C 300.07 774.08 307.80 774.10 315.53 774.19 C 315.42 735.51 315.52 696.83 315.37 658.16 C 304.94 658.53 294.51 658.35 284.09 658.32 C 274.90 686.65 264.61 714.62 254.74 742.72 C 243.72 714.94 234.50 686.49 224.84 658.22 C 214.50 658.36 204.17 658.38 193.83 658.28 M 437.17 667.57 C 437.26 674.52 437.08 681.46 437.24 688.41 C 433.06 688.42 428.89 688.38 424.73 688.31 C 424.81 693.76 424.83 699.21 424.80 704.67 C 428.93 704.91 433.06 705.18 437.20 705.23 C 437.23 720.83 437.20 736.44 437.40 752.05 C 437.44 759.56 440.44 767.87 447.42 771.57 C 454.66 775.23 463.08 774.64 470.95 774.45 C 472.07 774.32 474.30 774.58 474.25 772.90 C 474.45 767.37 474.17 761.83 474.86 756.33 C 471.40 756.32 467.63 757.09 464.41 755.50 C 460.65 753.02 460.46 748.03 460.37 744.00 C 460.30 730.93 460.12 717.86 460.24 704.79 C 464.91 704.79 469.58 704.85 474.25 705.02 C 474.69 699.42 474.23 693.78 474.51 688.17 C 469.74 688.37 464.96 688.36 460.19 688.39 C 460.22 681.42 460.19 674.46 460.34 667.50 C 452.62 667.64 444.89 667.55 437.17 667.57 M 351.22 693.20 C 344.30 697.80 340.54 706.01 340.08 714.15 C 347.14 714.05 354.20 714.10 361.26 714.19 C 362.23 710.43 363.92 706.35 367.84 704.88 C 372.84 703.04 379.21 702.94 383.51 706.47 C 387.85 710.33 386.70 716.66 386.90 721.83 C 379.61 722.53 372.22 721.92 365.00 723.26 C 357.53 724.59 349.72 726.67 344.05 732.02 C 333.57 741.93 334.54 761.10 346.06 769.84 C 353.68 775.41 363.84 776.27 372.85 774.35 C 379.03 772.99 383.91 768.65 387.99 764.05 C 388.44 767.13 388.67 770.24 388.80 773.36 C 396.47 773.33 404.14 773.54 411.81 773.40 C 411.28 769.15 410.54 764.91 410.50 760.63 C 410.27 745.42 410.61 730.21 410.45 715.01 C 410.22 707.88 408.22 700.14 402.54 695.39 C 396.83 690.59 389.41 688.39 382.14 687.44 C 371.64 686.50 360.21 687.08 351.22 693.20 M 510.64 690.75 C 499.45 696.24 492.19 707.81 490.30 719.93 C 488.50 731.13 488.63 743.13 493.34 753.66 C 497.49 763.30 506.52 770.26 516.43 773.27 C 526.99 776.34 538.64 776.05 548.89 771.95 C 557.87 768.16 564.11 760.08 568.50 751.66 C 561.60 751.64 554.79 750.55 548.01 749.39 C 545.31 753.92 540.20 756.41 535.04 756.74 C 530.12 757.04 524.77 757.27 520.44 754.51 C 514.32 751.14 511.99 743.83 511.07 737.34 C 530.20 737.06 549.33 737.43 568.46 737.40 C 568.50 727.69 567.94 717.73 564.39 708.58 C 561.39 700.66 555.21 693.97 547.42 690.60 C 535.92 685.38 522.04 685.22 510.64 690.75 M 618.62 689.53 C 614.84 691.55 612.22 695.06 610.11 698.69 C 609.78 698.69 609.11 698.69 608.78 698.68 C 608.71 695.28 608.71 691.88 608.83 688.49 C 601.61 688.48 594.39 688.51 587.17 688.46 C 587.44 716.91 587.02 745.36 587.16 773.80 C 594.73 773.58 602.30 773.68 609.87 773.67 C 609.52 756.47 609.30 739.25 609.66 722.04 C 609.52 717.26 612.57 712.97 616.64 710.71 C 622.33 707.74 629.05 708.79 635.18 709.35 C 635.25 702.09 635.12 694.83 635.29 687.57 C 629.74 686.81 623.61 686.57 618.62 689.53 M 706.76 695.72 C 701.48 700.39 699.39 707.43 698.55 714.22 C 705.85 713.87 713.15 713.96 720.45 714.30 C 721.23 710.74 722.66 706.89 726.20 705.25 C 731.32 702.83 737.99 702.91 742.70 706.23 C 747.40 709.93 746.11 716.48 746.28 721.70 C 732.36 722.78 717.14 721.77 705.03 729.98 C 691.48 739.16 692.26 762.41 706.25 770.77 C 713.64 775.29 722.84 775.52 731.16 774.12 C 737.67 772.87 742.95 768.62 747.12 763.68 C 747.43 766.87 747.76 770.08 748.33 773.25 C 755.95 773.13 763.58 773.08 771.21 773.31 C 770.17 769.19 769.37 765.00 769.29 760.75 C 768.94 745.46 769.46 730.17 769.07 714.89 C 768.86 708.32 766.82 701.64 762.31 696.74 C 756.81 690.97 748.70 688.76 741.08 687.46 C 729.29 686.34 715.86 687.20 706.76 695.72 M 652.59 687.48 C 652.43 716.20 652.65 744.93 652.29 773.66 C 659.96 773.55 667.64 773.53 675.33 773.55 C 674.99 757.04 675.28 740.52 675.16 724.01 C 675.28 711.86 674.12 699.66 675.21 687.53 C 667.67 687.88 660.13 687.75 652.59 687.48 M 424.44 858.70 C 419.79 859.95 415.42 862.72 412.93 866.93 C 408.12 874.30 408.14 883.56 408.85 892.03 C 409.77 899.94 413.11 908.54 420.73 912.20 C 430.21 916.86 443.65 914.89 449.76 905.70 C 453.57 900.30 454.32 893.46 454.41 887.03 C 454.57 879.30 453.03 871.06 448.00 864.95 C 442.37 858.30 432.58 856.60 424.44 858.70 M 509.49 858.49 C 505.40 874.03 500.80 889.43 496.02 904.76 C 492.58 889.28 488.48 873.95 484.99 858.48 C 482.80 858.47 480.61 858.50 478.43 858.56 C 483.73 877.06 488.27 895.77 493.44 914.30 C 495.09 914.26 496.75 914.24 498.41 914.23 C 503.22 899.30 507.62 884.23 512.03 869.18 C 515.98 884.25 520.77 899.09 524.82 914.13 C 526.39 914.18 527.98 914.24 529.56 914.31 C 530.70 911.72 531.46 908.99 532.18 906.26 C 536.49 890.38 540.15 874.33 544.47 858.45 C 542.33 858.47 540.20 858.52 538.08 858.64 C 535.26 874.02 530.92 889.07 527.09 904.22 C 522.75 889.08 518.76 873.84 515.00 858.55 C 513.16 858.50 511.32 858.48 509.49 858.49 M 578.19 860.15 C 570.24 863.76 567.59 875.77 574.02 881.96 C 579.01 886.14 585.69 887.13 591.70 889.13 C 595.61 890.41 600.21 892.02 601.80 896.23 C 603.81 900.39 601.79 905.95 597.39 907.56 C 591.20 910.06 583.35 910.38 577.85 906.12 C 575.42 904.32 574.50 901.35 573.52 898.64 C 571.70 898.69 569.88 898.74 568.07 898.81 C 568.68 905.17 573.00 910.85 579.10 912.87 C 586.36 915.20 594.71 914.99 601.56 911.46 C 609.15 907.51 611.15 896.08 605.04 889.96 C 598.16 882.99 587.13 884.12 579.44 878.56 C 574.79 875.14 575.92 867.50 580.68 864.74 C 585.47 862.04 591.69 861.95 596.62 864.33 C 600.47 866.24 602.22 870.53 602.71 874.58 C 604.60 874.54 606.50 874.50 608.40 874.45 C 607.22 868.96 605.10 862.95 599.77 860.21 C 593.11 856.94 584.89 857.06 578.19 860.15 M 276.29 858.73 C 276.41 877.09 276.50 895.46 276.42 913.83 C 283.85 913.73 291.29 913.87 298.73 913.67 C 304.01 913.46 309.79 911.36 312.59 906.60 C 315.18 902.74 315.30 897.77 314.39 893.36 C 313.23 888.65 308.72 885.36 303.99 885.01 C 312.89 883.73 315.94 872.36 311.55 865.42 C 308.85 860.68 303.07 859.14 297.99 858.86 C 290.76 858.59 283.52 858.83 276.29 858.73 M 343.12 858.74 C 343.12 877.08 343.35 895.43 342.85 913.77 C 344.88 913.79 346.91 913.80 348.95 913.82 C 348.61 905.95 348.82 898.07 348.63 890.20 C 353.41 889.42 358.25 890.04 363.05 890.23 C 366.81 890.29 371.11 891.81 372.60 895.58 C 374.93 901.33 373.52 907.99 376.45 913.64 C 378.52 913.95 380.61 914.25 382.72 914.18 C 382.73 913.92 382.74 913.41 382.74 913.16 C 379.23 908.83 380.35 903.06 379.57 897.93 C 379.14 893.35 375.65 889.40 371.32 888.03 C 376.42 886.81 380.29 882.12 380.87 876.97 C 382.05 870.04 378.49 861.72 371.19 859.92 C 362.02 857.70 352.47 859.09 343.12 858.74 M 637.30 858.76 C 637.34 877.07 637.74 895.38 637.26 913.68 C 649.36 913.58 661.47 913.73 673.58 913.62 C 673.58 911.85 673.57 910.08 673.57 908.33 C 663.50 908.54 653.44 908.43 643.37 908.54 C 643.32 901.64 643.40 894.74 643.35 887.85 C 651.98 887.81 660.60 887.87 669.23 887.79 C 669.24 886.10 669.26 884.41 669.28 882.73 C 660.66 882.60 652.03 882.60 643.40 882.69 C 643.37 876.30 643.51 869.92 643.26 863.54 C 653.29 863.53 663.34 863.85 673.37 863.51 C 673.16 861.88 672.92 860.29 672.65 858.70 C 660.87 858.89 649.08 858.71 637.30 858.76 M 700.28 858.74 C 700.34 877.03 700.36 895.32 700.43 913.61 C 702.39 913.64 704.36 913.67 706.33 913.71 C 706.46 905.73 706.17 897.76 706.39 889.79 C 712.06 889.86 717.75 889.60 723.38 890.41 C 726.84 890.88 729.93 893.50 730.85 896.90 C 732.23 902.29 730.67 908.35 733.82 913.30 C 736.10 913.34 738.38 913.33 740.68 913.26 C 735.84 908.37 738.20 901.28 736.52 895.34 C 735.49 891.68 732.19 889.49 729.14 887.63 C 732.63 885.62 736.40 883.05 737.42 878.89 C 738.14 874.67 737.99 870.03 735.73 866.27 C 733.42 862.13 728.72 859.83 724.15 859.39 C 716.20 858.97 708.24 858.71 700.28 858.74 Z" />
<path fill="#ffffff" opacity="1.00" d=" M 519.03 707.12 C 523.66 703.11 530.49 703.33 536.04 705.00 C 542.76 707.83 544.84 715.66 545.70 722.24 C 534.36 722.32 523.02 722.20 511.68 722.26 C 512.73 716.74 514.57 710.86 519.03 707.12 Z" />
<path fill="#ffffff" opacity="1.00" d=" M 363.93 738.91 C 370.70 734.57 379.19 735.78 386.83 735.33 C 386.72 740.16 387.45 745.16 386.21 749.89 C 382.51 757.60 372.41 759.29 364.89 757.11 C 357.35 754.42 357.72 742.89 363.93 738.91 Z" />
<path fill="#ffffff" opacity="1.00" d=" M 719.36 742.35 C 721.20 739.19 724.71 737.53 728.11 736.59 C 734.02 735.23 740.14 735.52 746.16 735.50 C 746.05 740.52 747.17 746.00 744.60 750.61 C 742.32 755.26 737.04 757.80 732.02 757.86 C 727.92 758.02 723.32 757.72 720.13 754.83 C 717.24 751.41 717.02 746.13 719.36 742.35 Z" />
<path fill="#ffffff" opacity="1.00" d=" M 282.20 863.68 C 289.20 863.99 296.88 862.27 303.31 865.75 C 309.29 868.89 308.55 878.72 302.35 881.16 C 295.94 883.65 288.85 882.15 282.15 882.53 C 282.27 876.24 281.96 869.94 282.20 863.68 Z" />
<path fill="#ffffff" opacity="1.00" d=" M 425.36 863.64 C 430.97 861.68 437.81 862.65 442.25 866.76 C 446.48 871.04 447.74 877.26 448.21 883.05 C 448.60 889.30 448.40 895.89 445.60 901.62 C 440.82 911.52 424.69 912.44 418.73 903.25 C 414.12 896.48 414.19 887.85 414.77 880.01 C 415.40 873.39 418.54 865.88 425.36 863.64 Z" />
<path fill="#ffffff" opacity="1.00" d=" M 706.27 863.66 C 712.86 864.08 719.68 862.88 726.09 864.88 C 732.44 867.13 734.00 876.01 730.10 881.06 C 728.42 883.15 725.82 884.35 723.18 884.59 C 717.63 885.16 711.99 885.54 706.44 884.94 C 706.12 877.85 706.52 870.75 706.27 863.66 Z" />
<path fill="#ffffff" opacity="1.00" d=" M 348.69 863.62 C 355.43 863.97 362.35 863.05 368.94 864.83 C 376.68 866.97 377.49 878.95 371.03 883.03 C 367.44 885.25 363.03 885.22 358.96 885.26 C 355.51 885.16 352.00 885.56 348.63 884.69 C 348.90 877.67 348.75 870.64 348.69 863.62 Z" />
<path fill="#ffffff" opacity="1.00" d=" M 282.13 887.46 C 288.79 887.61 295.58 886.80 302.15 888.14 C 311.10 889.96 311.45 904.82 302.93 907.55 C 296.30 909.80 289.11 908.41 282.24 908.82 C 282.05 901.70 282.31 894.58 282.13 887.46 Z" />
</g>
<g id="#f4b24aff">
<path fill="#f4b24a" opacity="1.00" d=" M 480.84 138.07 C 489.60 136.67 498.09 133.24 507.03 133.25 C 509.26 136.70 510.25 140.81 510.92 144.83 C 503.45 144.27 496.31 141.79 488.97 140.44 C 486.17 139.97 483.44 139.18 480.84 138.07 Z" />
<path fill="#f4b24a" opacity="1.00" d=" M 395.58 148.35 C 403.04 144.51 410.44 140.52 418.21 137.34 C 421.56 140.76 424.35 144.75 426.20 149.17 C 422.44 149.34 418.66 149.50 414.91 149.09 C 408.49 148.31 402.01 148.84 395.58 148.35 Z" />
<path fill="#f4b24a" opacity="1.00" d=" M 311.03 190.23 C 323.96 187.08 336.78 183.52 349.67 180.21 C 349.93 202.14 348.61 224.03 348.23 245.95 C 347.05 260.60 347.96 275.33 346.75 289.97 C 346.33 302.98 346.71 316.01 345.76 328.99 C 345.33 340.66 345.81 352.36 344.73 364.00 C 344.32 375.99 344.68 388.02 343.73 399.99 C 343.38 411.64 343.72 423.33 342.69 434.95 C 342.47 445.98 342.35 457.01 342.25 468.04 C 341.52 474.36 341.73 480.74 341.15 487.08 C 339.08 480.74 338.33 474.08 336.64 467.64 C 334.38 455.30 331.06 443.19 328.62 430.89 C 324.30 410.96 320.53 390.92 315.95 371.05 C 309.59 342.81 304.27 314.36 298.03 286.09 C 293.91 267.79 290.52 249.34 286.45 231.03 C 284.35 220.20 281.49 209.53 279.48 198.68 C 289.82 195.24 300.57 193.25 311.03 190.23 Z" />
<path fill="#f4b24a" opacity="1.00" d=" M 347.07 517.47 C 354.80 517.64 362.23 515.06 369.84 514.08 C 369.00 517.90 368.19 521.83 366.22 525.25 C 361.08 527.98 355.01 528.22 349.73 530.69 C 348.28 526.41 347.45 521.96 347.07 517.47 Z" />
<path fill="#f4b24a" opacity="1.00" d=" M 353.16 537.63 C 356.80 536.83 360.46 536.08 363.91 534.65 C 362.46 539.69 361.16 544.93 358.02 549.24 C 356.41 545.37 354.86 541.47 353.16 537.63 Z" />
</g>
<g id="#45b0d8ff">
<path fill="#45b0d8" opacity="1.00" d=" M 440.61 136.17 C 458.67 140.41 476.60 145.24 494.62 149.68 C 499.21 150.64 503.81 151.55 508.28 152.99 C 482.70 202.47 456.51 251.65 431.39 301.37 C 430.20 303.80 427.60 304.97 425.63 306.66 C 419.25 311.65 415.46 319.28 413.95 327.12 C 412.92 331.39 413.00 335.97 411.01 339.98 C 406.98 348.53 402.44 356.83 398.24 365.30 C 392.11 376.26 387.05 387.79 380.53 398.53 C 378.04 402.64 375.75 406.87 373.22 410.95 C 373.31 409.19 373.37 407.43 373.76 405.71 C 384.92 360.46 396.23 315.24 407.24 269.95 C 413.35 245.66 418.89 221.22 425.20 196.98 C 430.13 176.66 435.04 156.32 440.61 136.17 Z" />
<path fill="#45b0d8" opacity="1.00" d=" M 562.00 150.22 C 572.35 151.08 582.73 151.40 593.05 152.58 C 594.20 152.69 595.24 153.20 596.32 153.60 C 596.60 158.25 598.65 163.36 596.21 167.74 C 584.81 161.88 573.45 155.97 562.00 150.22 Z" />
</g>
<g id="#3884c3ff">
<path fill="#3884c3" opacity="1.00" d=" M 492.64 200.67 C 503.50 180.14 514.23 159.53 525.79 139.39 C 547.21 150.44 568.39 161.97 589.82 172.98 C 581.78 182.51 572.45 190.87 563.83 199.86 C 535.99 227.69 508.36 255.73 480.59 283.62 C 474.79 289.14 469.57 295.34 463.28 300.31 C 455.84 300.98 448.18 300.14 440.67 300.76 C 457.64 267.22 475.01 233.87 492.64 200.67 Z" />
<path fill="#3884c3" opacity="1.00" d=" M 652.87 180.60 C 662.44 184.21 672.40 186.68 681.97 190.28 C 681.41 195.37 680.02 200.32 678.40 205.16 C 669.40 197.50 661.32 188.85 652.87 180.60 Z" />
</g>
<g id="#6ab886ff">
<path fill="#6ab886" opacity="1.00" d=" M 358.73 156.56 C 359.04 156.47 359.67 156.29 359.99 156.20 C 380.64 156.56 401.31 156.72 421.97 156.78 C 423.54 156.75 425.08 157.11 426.61 157.45 C 421.99 174.54 418.55 191.93 414.00 209.04 C 409.24 227.86 404.94 246.78 400.28 265.62 C 393.93 289.62 388.62 313.88 382.48 337.93 C 376.49 360.65 371.56 383.64 365.08 406.23 C 364.06 410.45 363.19 414.72 361.75 418.83 C 358.55 428.82 356.68 439.54 350.80 448.43 C 350.24 441.32 350.76 434.16 351.01 427.04 C 352.98 366.46 354.12 305.85 356.26 245.28 C 356.50 224.83 357.67 204.41 357.80 183.96 C 358.71 174.85 358.04 165.67 358.73 156.56 Z" />
<path fill="#6ab886" opacity="1.00" d=" M 348.30 484.69 C 349.25 477.06 350.57 469.47 352.65 462.06 C 360.84 467.17 369.86 470.69 378.46 475.04 C 377.33 480.27 376.16 485.50 374.51 490.60 C 365.80 488.51 356.81 487.53 348.30 484.69 Z" />
<path fill="#6ab886" opacity="1.00" d=" M 345.74 509.34 C 345.29 503.75 345.39 498.13 345.74 492.54 C 354.64 494.83 363.77 496.07 372.84 497.51 C 372.54 500.43 372.02 503.33 371.21 506.17 C 362.78 507.57 354.35 509.68 345.74 509.34 Z" />
</g>
<g id="#6f4994ff">
<path fill="#6f4994" opacity="1.00" d=" M 616.41 158.57 C 625.97 165.57 633.88 174.53 642.98 182.11 C 652.63 191.27 662.50 200.23 671.67 209.88 C 658.97 217.54 645.77 224.36 632.97 231.87 C 626.01 236.02 618.61 239.39 611.68 243.60 C 587.46 257.47 562.85 270.65 538.73 284.67 C 531.97 288.64 524.94 292.12 518.25 296.21 C 515.01 297.98 511.80 300.33 507.97 300.45 C 496.83 300.49 485.69 300.29 474.56 300.58 C 500.26 275.93 524.72 250.03 550.12 225.08 C 565.87 209.17 581.73 193.36 597.58 177.55 C 603.70 171.07 610.47 165.22 616.41 158.57 Z" />
<path fill="#6f4994" opacity="1.00" d=" M 728.07 234.88 C 736.83 240.45 746.08 245.33 754.15 251.91 C 752.39 256.38 749.84 260.48 747.07 264.39 C 742.07 256.86 737.29 249.19 732.28 241.67 C 730.75 239.49 728.83 237.50 728.07 234.88 Z" />
<path fill="#6f4994" opacity="1.00" d=" M 761.09 285.00 C 770.62 294.33 781.43 302.51 789.86 312.93 C 787.63 315.65 785.57 318.50 783.72 321.48 C 778.37 313.63 773.58 305.42 768.71 297.27 C 766.27 293.11 763.15 289.37 761.09 285.00 Z" />
<path fill="#6f4994" opacity="1.00" d=" M 384.21 408.25 C 389.54 402.40 393.05 395.05 398.87 389.66 C 397.73 399.34 394.84 408.73 392.16 418.08 C 389.09 415.15 386.60 411.73 384.21 408.25 Z" />
<path fill="#6f4994" opacity="1.00" d=" M 368.29 429.26 C 370.24 423.28 375.19 419.02 378.07 413.53 C 382.19 417.72 385.89 422.32 390.01 426.53 C 388.92 432.15 387.52 437.71 385.96 443.22 C 380.52 438.04 373.71 434.51 368.29 429.26 Z" />
</g>
<g id="#d77f41ff">
<path fill="#d77f41" opacity="1.00" d=" M 320.80 179.72 C 324.43 174.10 330.05 170.09 334.78 165.43 C 338.78 167.60 342.55 170.16 346.13 172.97 C 337.62 174.93 329.07 176.88 320.80 179.72 Z" />
<path fill="#d77f41" opacity="1.00" d=" M 260.69 235.63 C 266.32 232.95 271.53 229.48 277.23 226.97 C 291.29 290.89 304.12 355.07 318.26 418.98 C 323.75 444.84 329.30 470.69 335.42 496.40 C 337.20 505.93 340.05 515.31 340.61 525.03 C 338.19 519.30 335.83 513.54 333.05 507.98 C 329.43 500.79 326.58 493.25 322.98 486.06 C 318.35 476.82 314.10 467.40 309.89 457.96 C 291.69 419.72 274.01 381.22 256.22 342.78 C 243.26 315.00 230.15 287.28 217.65 259.30 C 231.69 250.87 246.49 243.78 260.69 235.63 Z" />
</g>
<g id="#9bcb63ff">
<path fill="#9bcb63" opacity="1.00" d=" M 682.72 213.74 C 687.97 211.06 693.28 208.47 698.29 205.34 C 703.08 210.25 706.11 216.50 709.77 222.23 C 721.43 240.78 733.78 258.88 745.59 277.34 C 756.25 294.22 767.26 310.88 777.93 327.76 C 780.79 332.88 784.77 337.34 787.01 342.81 C 780.18 347.12 773.12 351.04 766.07 354.97 C 764.15 356.32 761.82 355.62 759.68 355.46 C 756.23 355.06 752.76 355.18 749.30 355.24 C 748.87 351.11 749.11 346.71 747.11 342.94 C 743.18 335.25 734.55 330.59 726.05 330.51 C 676.67 330.55 627.29 330.64 577.92 330.63 C 571.75 330.93 568.11 324.94 566.14 319.92 C 563.03 311.40 556.02 304.38 547.28 301.76 C 540.89 299.72 534.14 300.67 527.57 300.39 C 578.95 270.92 631.06 242.74 682.72 213.74 Z" />
<path fill="#9bcb63" opacity="1.00" d=" M 363.94 437.29 C 366.12 436.89 367.48 438.84 369.03 440.02 C 373.85 443.96 379.20 447.19 383.98 451.20 C 382.71 456.60 381.43 461.99 380.00 467.34 C 373.83 463.37 366.65 461.37 360.41 457.50 C 359.22 456.62 356.95 455.93 357.39 454.06 C 359.01 448.27 362.19 443.05 363.94 437.29 Z" />
</g>
<g id="#2d3843ff">
<path fill="#2d3843" opacity="1.00" d=" M 437.11 310.14 C 442.89 308.29 449.05 308.97 455.02 308.89 C 482.34 308.93 509.66 308.85 536.98 308.89 C 543.29 308.99 549.96 310.87 554.31 315.69 C 558.61 320.82 559.75 327.82 564.14 332.90 C 567.51 336.93 572.61 339.63 577.93 339.56 C 627.29 339.52 676.64 339.53 726.00 339.55 C 730.12 339.56 734.64 340.20 737.62 343.35 C 740.98 346.27 741.10 351.11 740.53 355.19 C 652.35 355.04 564.18 355.13 476.01 355.13 C 466.32 354.80 456.55 357.96 448.98 364.02 C 444.04 368.24 440.17 373.65 437.50 379.56 C 418.85 421.78 397.77 462.89 379.26 505.17 C 387.90 471.30 395.85 437.25 404.43 403.36 C 408.76 385.68 413.26 368.05 417.24 350.28 C 419.61 341.44 421.16 332.39 423.79 323.62 C 425.51 317.21 430.81 312.07 437.11 310.14 Z" />
<path fill="#2d3843" opacity="1.00" d=" M 467.44 364.67 C 470.26 364.08 473.14 363.82 476.02 363.80 C 569.67 363.80 663.32 363.82 756.98 363.74 C 761.23 363.71 765.80 365.02 768.53 368.49 C 771.62 372.18 771.64 377.59 769.91 381.90 C 760.84 401.93 750.91 421.56 741.38 441.38 C 723.71 477.67 705.72 513.79 688.13 550.11 C 685.09 556.90 681.64 564.00 675.29 568.28 C 670.14 571.52 664.19 573.65 658.08 573.83 C 564.04 573.83 470.00 573.87 375.95 573.82 C 371.81 573.92 367.27 572.61 364.81 569.05 C 361.75 565.15 362.56 559.70 364.40 555.45 C 367.78 547.53 371.57 539.81 375.00 531.92 C 379.59 521.42 385.15 511.38 389.96 500.99 C 394.02 491.86 398.60 482.97 402.87 473.95 C 415.10 446.43 428.89 419.65 441.08 392.11 C 443.81 385.82 446.10 379.03 451.09 374.08 C 455.60 369.62 461.24 366.15 467.44 364.67 Z" />
<path fill="#2d3843" opacity="1.00" d=" M 793.70 651.15 C 801.35 651.33 809.01 651.43 816.67 651.21 C 816.07 691.90 816.56 732.62 816.56 773.32 C 808.90 773.41 801.25 773.27 793.60 773.58 C 793.64 732.77 793.67 691.96 793.70 651.15 Z" />
<path fill="#2d3843" opacity="1.00" d=" M 659.42 652.63 C 662.94 651.77 666.87 652.05 670.02 653.96 C 677.76 657.92 678.05 671.27 669.99 675.01 C 664.81 677.71 657.48 676.96 653.93 671.98 C 649.10 665.88 651.53 654.81 659.42 652.63 Z" />
<path fill="#2d3843" opacity="1.00" d=" M 193.83 658.28 C 204.17 658.38 214.50 658.36 224.84 658.22 C 234.50 686.49 243.72 714.94 254.74 742.72 C 264.61 714.62 274.90 686.65 284.09 658.32 C 294.51 658.35 304.94 658.53 315.37 658.16 C 315.52 696.83 315.42 735.51 315.53 774.19 C 307.80 774.10 300.07 774.08 292.35 774.19 C 292.50 761.47 292.34 748.76 292.46 736.04 C 292.68 720.67 292.06 705.27 293.44 689.94 C 290.22 697.15 288.37 704.88 285.24 712.13 C 278.05 733.09 269.66 753.61 262.04 774.42 C 256.40 774.29 250.76 774.44 245.12 774.38 C 242.97 765.55 239.43 757.16 236.59 748.55 C 231.54 733.63 226.13 718.83 220.90 703.98 C 219.20 699.35 218.18 694.44 215.82 690.08 C 216.99 700.67 216.63 711.35 216.83 721.98 C 217.55 739.27 217.01 756.58 217.30 773.87 C 209.49 773.77 201.68 773.86 193.87 773.83 C 194.61 761.23 193.74 748.61 193.84 736.00 C 193.70 710.09 193.68 684.19 193.83 658.28 Z" />
<path fill="#2d3843" opacity="1.00" d=" M 437.17 667.57 C 444.89 667.55 452.62 667.64 460.34 667.50 C 460.19 674.46 460.22 681.42 460.19 688.39 C 464.96 688.36 469.74 688.37 474.51 688.17 C 474.23 693.78 474.69 699.42 474.25 705.02 C 469.58 704.85 464.91 704.79 460.24 704.79 C 460.12 717.86 460.30 730.93 460.37 744.00 C 460.46 748.03 460.65 753.02 464.41 755.50 C 467.63 757.09 471.40 756.32 474.86 756.33 C 474.17 761.83 474.45 767.37 474.25 772.90 C 474.30 774.58 472.07 774.32 470.95 774.45 C 463.08 774.64 454.66 775.23 447.42 771.57 C 440.44 767.87 437.44 759.56 437.40 752.05 C 437.20 736.44 437.23 720.83 437.20 705.23 C 433.06 705.18 428.93 704.91 424.80 704.67 C 424.83 699.21 424.81 693.76 424.73 688.31 C 428.89 688.38 433.06 688.42 437.24 688.41 C 437.08 681.46 437.26 674.52 437.17 667.57 Z" />
<path fill="#2d3843" opacity="1.00" d=" M 351.22 693.20 C 360.21 687.08 371.64 686.50 382.14 687.44 C 389.41 688.39 396.83 690.59 402.54 695.39 C 408.22 700.14 410.22 707.88 410.45 715.01 C 410.61 730.21 410.27 745.42 410.50 760.63 C 410.54 764.91 411.28 769.15 411.81 773.40 C 404.14 773.54 396.47 773.33 388.80 773.36 C 388.67 770.24 388.44 767.13 387.99 764.05 C 383.91 768.65 379.03 772.99 372.85 774.35 C 363.84 776.27 353.68 775.41 346.06 769.84 C 334.54 761.10 333.57 741.93 344.05 732.02 C 349.72 726.67 357.53 724.59 365.00 723.26 C 372.22 721.92 379.61 722.53 386.90 721.83 C 386.70 716.66 387.85 710.33 383.51 706.47 C 379.21 702.94 372.84 703.04 367.84 704.88 C 363.92 706.35 362.23 710.43 361.26 714.19 C 354.20 714.10 347.14 714.05 340.08 714.15 C 340.54 706.01 344.30 697.80 351.22 693.20 M 363.93 738.91 C 357.72 742.89 357.35 754.42 364.89 757.11 C 372.41 759.29 382.51 757.60 386.21 749.89 C 387.45 745.16 386.72 740.16 386.83 735.33 C 379.19 735.78 370.70 734.57 363.93 738.91 Z" />
<path fill="#2d3843" opacity="1.00" d=" M 510.64 690.75 C 522.04 685.22 535.92 685.38 547.42 690.60 C 555.21 693.97 561.39 700.66 564.39 708.58 C 567.94 717.73 568.50 727.69 568.46 737.40 C 549.33 737.43 530.20 737.06 511.07 737.34 C 511.99 743.83 514.32 751.14 520.44 754.51 C 524.77 757.27 530.12 757.04 535.04 756.74 C 540.20 756.41 545.31 753.92 548.01 749.39 C 554.79 750.55 561.60 751.64 568.50 751.66 C 564.11 760.08 557.87 768.16 548.89 771.95 C 538.64 776.05 526.99 776.34 516.43 773.27 C 506.52 770.26 497.49 763.30 493.34 753.66 C 488.63 743.13 488.50 731.13 490.30 719.93 C 492.19 707.81 499.45 696.24 510.64 690.75 M 519.03 707.12 C 514.57 710.86 512.73 716.74 511.68 722.26 C 523.02 722.20 534.36 722.32 545.70 722.24 C 544.84 715.66 542.76 707.83 536.04 705.00 C 530.49 703.33 523.66 703.11 519.03 707.12 Z" />
<path fill="#2d3843" opacity="1.00" d=" M 618.62 689.53 C 623.61 686.57 629.74 686.81 635.29 687.57 C 635.12 694.83 635.25 702.09 635.18 709.35 C 629.05 708.79 622.33 707.74 616.64 710.71 C 612.57 712.97 609.52 717.26 609.66 722.04 C 609.30 739.25 609.52 756.47 609.87 773.67 C 602.30 773.68 594.73 773.58 587.16 773.80 C 587.02 745.36 587.44 716.91 587.17 688.46 C 594.39 688.51 601.61 688.48 608.83 688.49 C 608.71 691.88 608.71 695.28 608.78 698.68 C 609.11 698.69 609.78 698.69 610.11 698.69 C 612.22 695.06 614.84 691.55 618.62 689.53 Z" />
<path fill="#2d3843" opacity="1.00" d=" M 706.76 695.72 C 715.86 687.20 729.29 686.34 741.08 687.46 C 748.70 688.76 756.81 690.97 762.31 696.74 C 766.82 701.64 768.86 708.32 769.07 714.89 C 769.46 730.17 768.94 745.46 769.29 760.75 C 769.37 765.00 770.17 769.19 771.21 773.31 C 763.58 773.08 755.95 773.13 748.33 773.25 C 747.76 770.08 747.43 766.87 747.12 763.68 C 742.95 768.62 737.67 772.87 731.16 774.12 C 722.84 775.52 713.64 775.29 706.25 770.77 C 692.26 762.41 691.48 739.16 705.03 729.98 C 717.14 721.77 732.36 722.78 746.28 721.70 C 746.11 716.48 747.40 709.93 742.70 706.23 C 737.99 702.91 731.32 702.83 726.20 705.25 C 722.66 706.89 721.23 710.74 720.45 714.30 C 713.15 713.96 705.85 713.87 698.55 714.22 C 699.39 707.43 701.48 700.39 706.76 695.72 M 719.36 742.35 C 717.02 746.13 717.24 751.41 720.13 754.83 C 723.32 757.72 727.92 758.02 732.02 757.86 C 737.04 757.80 742.32 755.26 744.60 750.61 C 747.17 746.00 746.05 740.52 746.16 735.50 C 740.14 735.52 734.02 735.23 728.11 736.59 C 724.71 737.53 721.20 739.19 719.36 742.35 Z" />
<path fill="#2d3843" opacity="1.00" d=" M 652.59 687.48 C 660.13 687.75 667.67 687.88 675.21 687.53 C 674.12 699.66 675.28 711.86 675.16 724.01 C 675.28 740.52 674.99 757.04 675.33 773.55 C 667.64 773.53 659.96 773.55 652.29 773.66 C 652.65 744.93 652.43 716.20 652.59 687.48 Z" />
<path fill="#2d3843" opacity="1.00" d=" M 424.44 858.70 C 432.58 856.60 442.37 858.30 448.00 864.95 C 453.03 871.06 454.57 879.30 454.41 887.03 C 454.32 893.46 453.57 900.30 449.76 905.70 C 443.65 914.89 430.21 916.86 420.73 912.20 C 413.11 908.54 409.77 899.94 408.85 892.03 C 408.14 883.56 408.12 874.30 412.93 866.93 C 415.42 862.72 419.79 859.95 424.44 858.70 M 425.36 863.64 C 418.54 865.88 415.40 873.39 414.77 880.01 C 414.19 887.85 414.12 896.48 418.73 903.25 C 424.69 912.44 440.82 911.52 445.60 901.62 C 448.40 895.89 448.60 889.30 448.21 883.05 C 447.74 877.26 446.48 871.04 442.25 866.76 C 437.81 862.65 430.97 861.68 425.36 863.64 Z" />
<path fill="#2d3843" opacity="1.00" d=" M 509.49 858.49 C 511.32 858.48 513.16 858.50 515.00 858.55 C 518.76 873.84 522.75 889.08 527.09 904.22 C 530.92 889.07 535.26 874.02 538.08 858.64 C 540.20 858.52 542.33 858.47 544.47 858.45 C 540.15 874.33 536.49 890.38 532.18 906.26 C 531.46 908.99 530.70 911.72 529.56 914.31 C 527.98 914.24 526.39 914.18 524.82 914.13 C 520.77 899.09 515.98 884.25 512.03 869.18 C 507.62 884.23 503.22 899.30 498.41 914.23 C 496.75 914.24 495.09 914.26 493.44 914.30 C 488.27 895.77 483.73 877.06 478.43 858.56 C 480.61 858.50 482.80 858.47 484.99 858.48 C 488.48 873.95 492.58 889.28 496.02 904.76 C 500.80 889.43 505.40 874.03 509.49 858.49 Z" />
<path fill="#2d3843" opacity="1.00" d=" M 578.19 860.15 C 584.89 857.06 593.11 856.94 599.77 860.21 C 605.10 862.95 607.22 868.96 608.40 874.45 C 606.50 874.50 604.60 874.54 602.71 874.58 C 602.22 870.53 600.47 866.24 596.62 864.33 C 591.69 861.95 585.47 862.04 580.68 864.74 C 575.92 867.50 574.79 875.14 579.44 878.56 C 587.13 884.12 598.16 882.99 605.04 889.96 C 611.15 896.08 609.15 907.51 601.56 911.46 C 594.71 914.99 586.36 915.20 579.10 912.87 C 573.00 910.85 568.68 905.17 568.07 898.81 C 569.88 898.74 571.70 898.69 573.52 898.64 C 574.50 901.35 575.42 904.32 577.85 906.12 C 583.35 910.38 591.20 910.06 597.39 907.56 C 601.79 905.95 603.81 900.39 601.80 896.23 C 600.21 892.02 595.61 890.41 591.70 889.13 C 585.69 887.13 579.01 886.14 574.02 881.96 C 567.59 875.77 570.24 863.76 578.19 860.15 Z" />
<path fill="#2d3843" opacity="1.00" d=" M 276.29 858.73 C 283.52 858.83 290.76 858.59 297.99 858.86 C 303.07 859.14 308.85 860.68 311.55 865.42 C 315.94 872.36 312.89 883.73 303.99 885.01 C 308.72 885.36 313.23 888.65 314.39 893.36 C 315.30 897.77 315.18 902.74 312.59 906.60 C 309.79 911.36 304.01 913.46 298.73 913.67 C 291.29 913.87 283.85 913.73 276.42 913.83 C 276.50 895.46 276.41 877.09 276.29 858.73 M 282.20 863.68 C 281.96 869.94 282.27 876.24 282.15 882.53 C 288.85 882.15 295.94 883.65 302.35 881.16 C 308.55 878.72 309.29 868.89 303.31 865.75 C 296.88 862.27 289.20 863.99 282.20 863.68 M 282.13 887.46 C 282.31 894.58 282.05 901.70 282.24 908.82 C 289.11 908.41 296.30 909.80 302.93 907.55 C 311.45 904.82 311.10 889.96 302.15 888.14 C 295.58 886.80 288.79 887.61 282.13 887.46 Z" />
<path fill="#2d3843" opacity="1.00" d=" M 343.12 858.74 C 352.47 859.09 362.02 857.70 371.19 859.92 C 378.49 861.72 382.05 870.04 380.87 876.97 C 380.29 882.12 376.42 886.81 371.32 888.03 C 375.65 889.40 379.14 893.35 379.57 897.93 C 380.35 903.06 379.23 908.83 382.74 913.16 C 382.74 913.41 382.73 913.92 382.72 914.18 C 380.61 914.25 378.52 913.95 376.45 913.64 C 373.52 907.99 374.93 901.33 372.60 895.58 C 371.11 891.81 366.81 890.29 363.05 890.23 C 358.25 890.04 353.41 889.42 348.63 890.20 C 348.82 898.07 348.61 905.95 348.95 913.82 C 346.91 913.80 344.88 913.79 342.85 913.77 C 343.35 895.43 343.12 877.08 343.12 858.74 M 348.69 863.62 C 348.75 870.64 348.90 877.67 348.63 884.69 C 352.00 885.56 355.51 885.16 358.96 885.26 C 363.03 885.22 367.44 885.25 371.03 883.03 C 377.49 878.95 376.68 866.97 368.94 864.83 C 362.35 863.05 355.43 863.97 348.69 863.62 Z" />
<path fill="#2d3843" opacity="1.00" d=" M 637.30 858.76 C 649.08 858.71 660.87 858.89 672.65 858.70 C 672.92 860.29 673.16 861.88 673.37 863.51 C 663.34 863.85 653.29 863.53 643.26 863.54 C 643.51 869.92 643.37 876.30 643.40 882.69 C 652.03 882.60 660.66 882.60 669.28 882.73 C 669.26 884.41 669.24 886.10 669.23 887.79 C 660.60 887.87 651.98 887.81 643.35 887.85 C 643.40 894.74 643.32 901.64 643.37 908.54 C 653.44 908.43 663.50 908.54 673.57 908.33 C 673.57 910.08 673.58 911.85 673.58 913.62 C 661.47 913.73 649.36 913.58 637.26 913.68 C 637.74 895.38 637.34 877.07 637.30 858.76 Z" />
<path fill="#2d3843" opacity="1.00" d=" M 700.28 858.74 C 708.24 858.71 716.20 858.97 724.15 859.39 C 728.72 859.83 733.42 862.13 735.73 866.27 C 737.99 870.03 738.14 874.67 737.42 878.89 C 736.40 883.05 732.63 885.62 729.14 887.63 C 732.19 889.49 735.49 891.68 736.52 895.34 C 738.20 901.28 735.84 908.37 740.68 913.26 C 738.38 913.33 736.10 913.34 733.82 913.30 C 730.67 908.35 732.23 902.29 730.85 896.90 C 729.93 893.50 726.84 890.88 723.38 890.41 C 717.75 889.60 712.06 889.86 706.39 889.79 C 706.17 897.76 706.46 905.73 706.33 913.71 C 704.36 913.67 702.39 913.64 700.43 913.61 C 700.36 895.32 700.34 877.03 700.28 858.74 M 706.27 863.66 C 706.52 870.75 706.12 877.85 706.44 884.94 C 711.99 885.54 717.63 885.16 723.18 884.59 C 725.82 884.35 728.42 883.15 730.10 881.06 C 734.00 876.01 732.44 867.13 726.09 864.88 C 719.68 862.88 712.86 864.08 706.27 863.66 Z" />
</g>
</svg>
