<svg xmlns="http://www.w3.org/2000/svg" width="1024pt" height="1024pt" viewBox="0 0 1024 1024">
  <g fill="#fff">
    <path d="M0 0h1024v1024H0V0m480.64 190.26c9.36 3.09 19.1 5.32 28.93 6.22-.37-4.08-1.62-8-3.65-11.56-8.59.86-17.01 2.9-25.28 5.34m-40.81-2.13c-1.43 4.01-2.65 8.09-3.53 12.26-9.99 39.19-19.56 78.5-29.12 117.8-9.67 39.9-19.74 79.71-29.44 119.61-1.98 8.08-4.58 16.05-5.54 24.35 5.3-7.27 9.48-15.28 13.78-23.16 7.67-15.28 15.9-30.27 23.4-45.63 3.16-6.49 2.77-13.98 5.38-20.65a30.7 30.7 0 0 1 10.53-14.39c3.13-2.29 5.61-5.34 7.18-8.89 9.32-19.42 19.83-38.22 29.51-57.44 14.9-29.07 30.46-57.8 45.19-86.94-6.33-2.13-12.93-3.17-19.38-4.83-15.99-4.03-31.96-8.11-47.96-12.09m-44.94 12.41c10.09-.22 20.16 1.19 30.24.45-1.9-4.34-4.47-8.37-8.09-11.48-7.7 3.01-15.06 6.81-22.15 11.03m121.5 5.83c-17.94 32.91-35.21 66.18-52.67 99.35-7.67 15.77-16.49 30.97-23.78 46.93 6.66-.14 13.32.16 19.98-.08 2.81.03 4.81-2.18 6.72-3.93 38.6-38.73 76.99-77.68 115.7-116.31 2.27-2.26 4.26-4.78 6.21-7.31-5.17-3.22-10.69-5.8-16.15-8.48-15.81-8.38-31.49-17.04-47.53-24.97-3.22 4.7-5.84 9.76-8.48 14.8m45.5-3.97c7.3 4.52 15.27 7.81 22.78 11.95 3.6 2.03 7.37 3.74 11.33 4.96.22-4.63.93-9.69-1.39-13.93-3.02-1.34-6.42-1.26-9.64-1.58-7.7-.38-15.38-1.11-23.08-1.4m-204.51 5.89c-.05 8.57.15 17.15-.44 25.71-.57 12-.07 24.03-.95 36.02-.75 9.97-.51 19.97-.81 29.96-.78 14-.38 28.04-1.43 42.04.06 14.01-.79 27.99-1.1 41.99.16 15.34-1.15 30.66-1.05 46 .07 12.01-1.42 23.96-1.23 35.97.22 11.16-1.5 22.31-.38 33.45 4.06-5.18 5.69-11.64 7.61-17.8 7.95-26.75 14.48-53.88 21.1-80.98 6.35-23.98 11.79-48.18 17.78-72.25 2.1-8.21 4.35-16.38 6.21-24.65 5.98-26.13 12.91-52.03 18.83-78.17 1.39-5.45 2.88-10.88 3.73-16.44-9.07-.64-18.17-.39-27.25-.47-13.55.1-27.08-.56-40.62-.38m217.67 42.77C548.61 277.61 522 304 495.81 330.81c-7.04 7.21-14.57 13.94-21.37 21.38 10.19.44 20.39.12 30.59.25 4.45.17 8.49-1.93 12.18-4.18 44.62-25.55 89.68-50.33 134.48-75.55 6.22-3.63 12.76-6.72 18.74-10.76-8.66-9.77-18.57-18.34-27.98-27.36-9.05-7.76-17.22-16.51-26.64-23.83-13.96 13.04-27.11 26.93-40.76 40.3m-242.4-32.45c-4.9 3.68-9.02 8.3-12.99 12.93 8.35-2.49 16.87-4.37 25.27-6.73-2.83-2.14-5.56-4.49-8.81-5.99-1.06-.41-2.45-1.11-3.47-.21m-46.41 29.62c-2.59.7-5.1 1.66-7.6 2.61.82 5.45 2 10.83 3.35 16.17 3.94 17.88 7.74 35.79 11.3 53.75 5.39 24.73 10.72 49.48 15.62 74.31 4.65 22.54 10.04 44.93 14.45 67.52 4.63 23.48 10.47 46.7 15 70.19.47 1.89 1.16 3.72 1.91 5.53 1.07-14.75 1.16-29.54 1.14-44.32-.12-8.02 1.02-15.99.99-24 0-7-.07-14.01.49-20.99.96-11.68.03-23.41.94-35.09 1.06-11.6.16-23.27 1.03-34.88 1.07-14.3-.14-28.67 1.3-42.94.89-11.69.01-23.43.92-35.12.8-9.64.33-19.32.84-28.97.91-13.25.74-26.53.77-39.8-20.8 5.41-41.55 11.02-62.45 16.03m366.55-15.09c7.8 8.39 15.84 16.67 24.74 23.91 1.65-4.77 2.79-9.71 3.4-14.73-9.23-3.5-18.74-6.18-28.14-9.18m-39.22 70.41c-17.69 10.05-35.59 19.7-53.29 29.72-10.85 6.31-22.11 11.95-32.65 18.78 3.78.24 7.58.24 11.36.43 9.96.39 19.62 6.32 24.14 15.26 2.32 4.3 3.7 9.34 7.48 12.66 1.97 1.84 4.73 2.26 7.32 2.3 45.03-.09 90.05-.07 135.08-.08 5 .02 10.02-.3 15.01.19 7.05.66 13.64 4.84 17.38 10.82 2.47 3.98 2.5 8.81 2.96 13.32 6.6.07 13.93 2.34 19.87-1.64 5.93-3.46 11.97-6.76 17.72-10.53-3.52-7.43-8.64-13.9-12.78-20.96-11.64-18.04-23.26-36.09-34.83-54.16-9.75-14.9-19.65-29.71-29.16-44.77-3.84-5.87-6.75-12.47-11.98-17.31-28.16 14.8-55.65 30.84-83.63 45.97m-355.2-15.15c-13.78 7.76-28.06 14.62-41.56 22.87.62 1.68 1.24 3.36 1.93 5.02 12.78 27.52 25.42 55.13 38.4 82.57 17.28 37.59 34.66 75.15 52.41 112.52 3.3 7.35 6.52 14.74 10.12 21.95 6.8 13.47 12.2 27.61 19.31 40.93-.24-8.75-2.89-17.16-4.54-25.69-10.51-44.67-19.71-89.64-29.47-134.49-7.77-35.73-14.84-71.62-22.77-107.32-1.96-9.28-3.64-18.64-6.15-27.79-5.97 3-11.77 6.32-17.68 9.43m468.6-1.33c6.31 9.74 12.61 19.49 19.08 29.13 2.99-3.68 5.29-7.84 7.03-12.25-8.02-6.61-17.16-11.68-26.11-16.88m33.02 49.97c3.41 5.86 7.38 11.38 10.73 17.28 3.89 6.29 7.38 12.86 11.9 18.73 2.17-2.66 4.23-5.41 6.25-8.19-8.79-10.1-19.1-18.72-28.88-27.82m-336.15 35.88c-3.27 8.11-4.29 16.89-6.59 25.29-7.95 34.47-16.84 68.71-25.16 103.09-4.65 18.56-8.85 37.23-13.95 55.67 19.04-42.32 39.84-83.82 58.73-126.2 4.15-8.94 11.29-16.68 20.56-20.37 9.28-4.21 19.67-3.19 29.57-3.46 84.3.06 168.6.2 252.9 0-.21-3.78.17-8.17-2.76-11.07-3.48-4.05-9.2-4.35-14.15-4.34-48.66.07-97.33-.01-145.99.04-6.08.05-11.84-3.38-15.15-8.4-3.39-4.85-4.72-10.89-8.56-15.46-4.29-4.82-10.96-6.7-17.24-6.74-30.7-.06-61.4.07-92.1-.01-8.21-.14-16.84 4.13-20.11 11.96m42.59 43.76c-6.19 1.48-11.84 4.93-16.33 9.4-5.68 5.74-7.97 13.69-11.26 20.84-12 26.76-25.34 52.9-37.29 79.69-7.43 14.97-14.18 30.25-21.82 45.11-5.33 10.84-9.99 21.98-15.14 32.9-2.35 5.04-4.51 11.62-.72 16.53 3.19 4.44 9.1 4.84 14.1 4.71 87.34-.09 174.68.05 262.02-.06 9.92-.27 20.47 1.51 29.73-3.04 6.31-2.61 11.16-7.87 14.15-13.92 26.02-53.86 52.9-107.31 78.66-161.29 2.63-6.76 7.68-12.97 7.46-20.53-.09-5.88-5.38-10.57-11.04-11.03-6.96-.66-13.97-.13-20.95-.24-84.66.02-169.33.06-254 .03-5.86.05-11.79-.32-17.57.9m-83.12 43.6c2.18 3.48 4.67 6.76 7.8 9.46 2.99-9.1 5.49-18.43 6.7-27.93-5.69 5.44-9.52 12.43-14.5 18.47M367.24 481c5.36 5.36 11.9 9.25 17.82 13.92 1.19-5.45 3.62-10.81 3.42-16.44-3.19-4.71-7.48-8.55-11.31-12.72-3.5 4.96-7.37 9.69-9.93 15.24M356 506.92c6.76 5.54 15.27 8.09 22.96 12.02 1.67-5.14 2.9-10.39 3.91-15.68-6.13-5.14-12.89-9.45-19.09-14.49-3.18 5.79-5.61 11.93-7.78 18.15m-8.62 29.77c6.86 2.24 13.98 3.47 21.03 4.92 1.67.13 3.55.89 5.15.08 2.19-4.55 2.74-9.65 3.69-14.55-8.43-4.4-17.15-8.22-25.52-12.75-2.32 7.24-3.56 14.75-4.35 22.3m-2.46 8.28c-.53 5.42-.52 10.88-.06 16.31 8.58.28 17.02-1.51 25.4-3.14.63-2.85 1.13-5.73 1.49-8.62-8.98-1.3-17.86-3.2-26.83-4.55m1.15 24.63c.32 4.45 1.22 8.83 2.74 13.02 4.52-1.59 9.22-2.6 13.74-4.18 5.13-1.61 5.04-8.03 6.29-12.34-7.59 1.2-15.09 2.99-22.77 3.5m6.33 20.26c1.31 3.74 2.82 7.41 4.72 10.9 2.9-4.11 4.55-8.88 5.71-13.73-3.52.78-7 1.73-10.43 2.83m-110.55 88.18c-.12 25.64-.12 51.27 0 76.91 6.05.1 12.09.09 18.14.01.16-19.7.1-39.39-.57-59.08 3.07 9.95 5.42 20.1 8.77 29.96 3.32 9.69 6.43 19.45 9.88 29.09 5.01.11 10.01.11 15.02.07 3.33-9.13 6.14-18.44 9.28-27.63 3.62-10.68 6.22-21.66 9.28-32.5-.58 20.03-.78 40.05-.61 60.09 6.08.08 12.18.09 18.27 0 .17-25.64.17-51.29 0-76.93-9.4-.05-18.8-.1-28.19.03-3.19 9.57-6.29 19.17-9.35 28.78-2.58 8.01-3.81 16.38-6.28 24.42-1.94-8.24-3.41-16.61-6.09-24.66-3.16-9.53-6.2-19.08-9.45-28.58-9.37-.04-18.73-.07-28.1.02m121.1-.04c-8.8 25.59-17.33 51.28-25.94 76.94 6.7.13 13.4.06 20.11.07 1.79-5.28 3.46-10.59 5-15.95 8.66-.14 17.32-.05 25.98-.07 1.8 5.27 3.55 10.57 5.09 15.93 6.88.14 13.76.13 20.64.03-8.67-25.62-17.78-51.09-26.3-76.76-8.19-.39-16.39-.15-24.58-.19m46.22.05c-.05 4.96-.05 9.93 0 14.89 7.69.13 15.38-.01 23.07.1.21 20.61.08 41.23.06 61.85 6.13.19 12.27.19 18.41 0-.02-20.62-.15-41.24.05-61.85 7.69-.11 15.38.03 23.08-.09.04-4.97.04-9.94 0-14.9-21.56-.09-43.11-.09-64.67 0m73.68-.01c-.12 25.64-.12 51.28 0 76.92 18.08.07 36.15.07 54.23 0 .13-4.98.13-9.95 0-14.92-11.98-.14-23.96.06-35.94-.09-.05-5.43-.05-10.85.01-16.28 10.97-.31 21.95-.1 32.93-.08.36-4.92.39-9.85.15-14.77-11.01-.21-22.02-.02-33.04-.08-.11-5.23-.11-10.47-.05-15.69 11.99-.16 23.99.05 35.99-.09.13-4.97.13-9.95-.01-14.92-18.09-.07-36.18-.07-54.27 0m65 0c-.12 25.64-.12 51.27 0 76.91 6.07.1 12.14.1 18.22 0 .15-8.72-.02-17.45.08-26.16 3.52-.05 7.04-.03 10.57.08 4.42 8.71 9.05 17.32 13.49 26.02 6.64.17 13.28.17 19.93.06-4.92-9.78-10.44-19.25-15.36-29.03 4.09-2.83 8.35-5.95 10.43-10.64 4.59-10.07 3.01-23.46-5.62-30.9-6.19-5.35-14.7-6.52-22.59-6.4-9.72.04-19.43-.04-29.15.06m70 .01c-.12 25.63-.12 51.27 0 76.9 6.07.1 12.14.1 18.22 0 .1-25.63.1-51.27 0-76.9-6.08-.11-12.15-.11-18.22 0m52.1-.05c-8.8 25.59-17.33 51.28-25.94 76.94 6.7.13 13.4.06 20.11.07 1.78-5.28 3.46-10.6 5-15.95 8.66-.14 17.32-.05 25.98-.07 1.8 5.27 3.55 10.56 5.09 15.92 6.88.15 13.76.14 20.64.04-8.67-25.62-17.78-51.09-26.3-76.76-8.19-.39-16.39-.15-24.58-.19m58.9.05c-.12 25.64-.12 51.27 0 76.91 16.98.05 33.95.11 50.92-.03.03-4.96.03-9.91 0-14.86-10.88-.2-21.76.05-32.64-.12-.06-20.63.09-41.27-.06-61.9-6.08-.11-12.15-.11-18.22 0m-400.78 116.2c-.19 14.57-.1 29.14-.06 43.71 7.21-.22 14.68.98 21.67-1.22 6.78-2.25 8.59-11.59 4.63-17.03-1.47-1.89-3.65-2.98-5.66-4.15 2.88-2.04 5.78-4.75 5.88-8.54.85-5.46-2.76-11.06-8.19-12.25-6.02-1.09-12.19-.33-18.27-.52m53 0c-.18 14.6-.13 29.21-.03 43.81.67-.05 2.02-.17 2.69-.23-.13-6.01-.06-12.01.04-18.02 4.34-.15 8.68-.1 13.02.09 3.19 5.93 6.38 11.87 9.52 17.84.77.07 2.29.22 3.06.3-2.77-6.37-6.63-12.17-9.46-18.51 2.39-1.77 4.99-3.45 6.59-6.02 3.48-6.24.99-15.37-5.91-18.03-6.26-2.17-13.03-.95-19.52-1.23m63.33.27c-4.23 1.11-7.92 3.98-10.08 7.78-3.48 5.86-4.1 13.01-3.06 19.64 1.01 6.52 5.21 12.73 11.41 15.29 6.27 2.48 14.09 1.21 18.8-3.78 4.27-4.07 6.04-10.06 6.21-15.82.2-6.55-1.28-13.55-5.81-18.5-4.32-4.73-11.41-6.25-17.47-4.61m44.4-.45c1.38 7.29 3.75 14.34 5.67 21.5 2.14 7.5 4.02 15.08 6.44 22.51.79-.01 2.38-.02 3.17-.02 4.11-13.3 7.21-26.88 11.16-40.22 3.4 13.45 7.09 26.83 10.87 40.19 1.18-.09 2.35-.16 3.54-.23 3.79-14.83 8.69-29.39 11.95-44.34-4.08 1.59-4.03 6.39-5.21 9.94-2.95 10.28-5.29 20.75-8.78 30.87-3.65-13.35-6.97-26.79-10.84-40.07-1.13-.02-2.25.02-3.37.13-3.78 13.31-6.92 26.8-10.99 40.01-3.74-13.22-7.29-26.49-10.94-39.73-.67-.14-2-.41-2.67-.54m77.07 3.84c-3.92 3.85-3.94 11.22.53 14.67 5.63 4.54 13.66 4.21 19.27 8.75 3.64 2.97 2.73 8.87-.54 11.77-6.37 5.77-18.7 3.34-20.89-5.53-.61-.11-1.82-.34-2.43-.46.73 2.69 1.25 5.69 3.39 7.69 3.32 3.25 8.29 4 12.75 3.91 6.55-.09 13.25-5.69 12.79-12.57-.05-3.56-2.43-6.68-5.4-8.42-5.34-3.08-11.89-3.38-16.95-7-3.31-2.31-3.65-7.43-1.15-10.44 4.02-4.91 12.03-5.16 16.86-1.35 2.05 2.38 3.24 5.46 5.8 7.41-.06-3.71-1.25-7.61-4.44-9.8-5.78-3.95-14.57-3.81-19.59 1.37m50.21-3.67c-.21 14.57-.1 29.15-.07 43.74 8.44.04 16.89.08 25.33-.04-.13-.64-.4-1.91-.54-2.54-7.34.08-14.68.16-22.02-.05-.21-6.04-.21-12.07.07-18.1 6.81.02 13.63.04 20.44-.04 0-.6.01-1.82.01-2.42-6.82-.08-13.64-.06-20.45-.04-.27-5.98-.29-11.95-.05-17.92 7.36-.17 14.72-.06 22.08-.09.01-.62.01-1.86.02-2.48-8.28-.02-16.55 0-24.82-.02m49.99.01c-.18 14.6-.13 29.21-.03 43.81.67-.05 2.02-.17 2.69-.23-.13-6.01-.06-12.01.04-18.02 4.34-.15 8.68-.1 13.02.09 3.18 5.94 6.38 11.87 9.52 17.84.77.08 2.3.23 3.06.3-2.77-6.37-6.63-12.17-9.45-18.51 3.39-2.41 7.35-5.18 7.87-9.69 1.43-6.22-2.3-13.28-8.63-14.86-5.93-1.37-12.07-.55-18.09-.73Z"/>
    <path d="M566.15 692.84c5.39-.01 10.97-.71 16.21.91 7.95 2.38 8.98 15.58 1.32 18.95-5.58 2.14-11.69 1.52-17.53 1.47-.06-7.11-.06-14.22 0-21.33ZM372.87 701c.52-2.5 1.37-4.91 2.27-7.29 2.67 10.46 5.41 20.92 8.62 31.24-5.69.09-11.38.11-17.06-.03 2.05-7.98 4.5-15.85 6.17-23.92ZM679.87 701c.57-2.46 1.3-4.89 2.26-7.22 2.73 10.43 5.41 20.87 8.63 31.17-5.69.09-11.38.11-17.06-.03 2.05-7.98 4.5-15.85 6.17-23.92ZM445.53 796.72c4.19-1.01 8.91-.35 12.33 2.41 5.74 4.33 7.59 12.06 7.11 18.93-.33 6.25-2.9 13.22-8.87 16.11-6.26 3.38-14.83 1.44-18.86-4.46-4.07-5.85-4.48-13.59-2.94-20.36 1.25-5.75 5.4-11.07 11.23-12.63ZM330.8 796.83c5.46.09 11.21-.92 16.46 1.02 6.45 2.88 6.17 13.67-.51 16.09-5.23 1.19-10.66.37-15.97.39-.18-5.83-.19-11.67.02-17.5ZM383.79 796.83c5.37.13 11.13-1.07 16.2 1.21 6.94 3.19 7.11 14.85.13 18.06-5.19 2.01-10.91.97-16.33 1.07-.2-6.78-.2-13.56 0-20.34ZM668.79 796.83c5.37.13 11.13-1.07 16.2 1.21 6.94 3.19 7.11 14.84.13 18.06-5.19 2.01-10.91.97-16.33 1.07-.2-6.78-.2-13.56 0-20.34ZM330.78 817.05c5.74.17 11.73-.92 17.28.94 6.29 2.35 7.6 12.24 1.68 15.73-5.88 2.85-12.67 1.54-18.96 1.62-.19-6.1-.18-12.2 0-18.29Z"/>
  </g>
  <g fill="#f4b24a">
    <path d="M480.64 190.26c8.27-2.44 16.69-4.48 25.28-5.34 2.03 3.56 3.28 7.48 3.65 11.56-9.83-.9-19.57-3.13-28.93-6.22ZM394.89 200.54c7.09-4.22 14.45-8.02 22.15-11.03 3.62 3.11 6.19 7.14 8.09 11.48-10.08.74-20.15-.67-30.24-.45ZM286.24 248.23c20.9-5.01 41.65-10.62 62.45-16.03-.03 13.27.14 26.55-.77 39.8-.51 9.65-.04 19.33-.84 28.97-.91 11.69-.03 23.43-.92 35.12-1.44 14.27-.23 28.64-1.3 42.94-.87 11.61.03 23.28-1.03 34.88-.91 11.68.02 23.41-.94 35.09-.56 6.98-.49 13.99-.49 20.99.03 8.01-1.11 15.98-.99 24 .02 14.78-.07 29.57-1.14 44.32-.75-1.81-1.44-3.64-1.91-5.53-4.53-23.49-10.37-46.71-15-70.19-4.41-22.59-9.8-44.98-14.45-67.52-4.9-24.83-10.23-49.58-15.62-74.31-3.56-17.96-7.36-35.87-11.3-53.75-1.35-5.34-2.53-10.72-3.35-16.17 2.5-.95 5.01-1.91 7.6-2.61ZM346.07 569.6c7.68-.51 15.18-2.3 22.77-3.5-1.25 4.31-1.16 10.73-6.29 12.34-4.52 1.58-9.22 2.59-13.74 4.18-1.52-4.19-2.42-8.57-2.74-13.02ZM352.4 589.86c3.43-1.1 6.91-2.05 10.43-2.83-1.16 4.85-2.81 9.62-5.71 13.73-1.9-3.49-3.41-7.16-4.72-10.9Z"/>
  </g>
  <g fill="#45b0d8">
    <path d="M439.83 188.13c16 3.98 31.97 8.06 47.96 12.09 6.45 1.66 13.05 2.7 19.38 4.83-14.73 29.14-30.29 57.87-45.19 86.94-9.68 19.22-20.19 38.02-29.51 57.44-1.57 3.55-4.05 6.6-7.18 8.89a30.7 30.7 0 0 0-10.53 14.39c-2.61 6.67-2.22 14.16-5.38 20.65-7.5 15.36-15.73 30.35-23.4 45.63-4.3 7.88-8.48 15.89-13.78 23.16.96-8.3 3.56-16.27 5.54-24.35 9.7-39.9 19.77-79.71 29.44-119.61 9.56-39.3 19.13-78.61 29.12-117.8.88-4.17 2.1-8.25 3.53-12.26ZM561.89 202.4c7.7.29 15.38 1.02 23.08 1.4 3.22.32 6.62.24 9.64 1.58 2.32 4.24 1.61 9.3 1.39 13.93-3.96-1.22-7.73-2.93-11.33-4.96-7.51-4.14-15.48-7.43-22.78-11.95Z"/>
  </g>
  <g fill="#3884c3">
    <path d="M516.39 206.37c2.64-5.04 5.26-10.1 8.48-14.8 16.04 7.93 31.72 16.59 47.53 24.97 5.46 2.68 10.98 5.26 16.15 8.48-1.95 2.53-3.94 5.05-6.21 7.31-38.71 38.63-77.1 77.58-115.7 116.31-1.91 1.75-3.91 3.96-6.72 3.93-6.66.24-13.32-.06-19.98.08 7.29-15.96 16.11-31.16 23.78-46.93 17.46-33.17 34.73-66.44 52.67-99.35ZM652.79 233.14c9.4 3 18.91 5.68 28.14 9.18-.61 5.02-1.75 9.96-3.4 14.73-8.9-7.24-16.94-15.52-24.74-23.91Z"/>
  </g>
  <g fill="#6ab886">
    <path d="M357.38 208.29c13.54-.18 27.07.48 40.62.38 9.08.08 18.18-.17 27.25.47-.85 5.56-2.34 10.99-3.73 16.44-5.92 26.14-12.85 52.04-18.83 78.17-1.86 8.27-4.11 16.44-6.21 24.65-5.99 24.07-11.43 48.27-17.78 72.25-6.62 27.1-13.15 54.23-21.1 80.98-1.92 6.16-3.55 12.62-7.61 17.8-1.12-11.14.6-22.29.38-33.45-.19-12.01 1.3-23.96 1.23-35.97-.1-15.34 1.21-30.66 1.05-46 .31-14 1.16-27.98 1.1-41.99 1.05-14 .65-28.04 1.43-42.04.3-9.99.06-19.99.81-29.96.88-11.99.38-24.02.95-36.02.59-8.56.39-17.14.44-25.71ZM347.38 536.69c.79-7.55 2.03-15.06 4.35-22.3 8.37 4.53 17.09 8.35 25.52 12.75-.95 4.9-1.5 10-3.69 14.55-1.6.81-3.48.05-5.15-.08-7.05-1.45-14.17-2.68-21.03-4.92ZM344.92 544.97c8.97 1.35 17.85 3.25 26.83 4.55-.36 2.89-.86 5.77-1.49 8.62-8.38 1.63-16.82 3.42-25.4 3.14-.46-5.43-.47-10.89.06-16.31Z"/>
  </g>
  <g fill="#6f4994">
    <path d="M575.05 251.06c13.65-13.37 26.8-27.26 40.76-40.3 9.42 7.32 17.59 16.07 26.64 23.83 9.41 9.02 19.32 17.59 27.98 27.36-5.98 4.04-12.52 7.13-18.74 10.76-44.8 25.22-89.86 50-134.48 75.55-3.69 2.25-7.73 4.35-12.18 4.18-10.2-.13-20.4.19-30.59-.25 6.8-7.44 14.33-14.17 21.37-21.38 26.19-26.81 52.8-53.2 79.24-79.75ZM726.97 287.07c8.95 5.2 18.09 10.27 26.11 16.88-1.74 4.41-4.04 8.57-7.03 12.25-6.47-9.64-12.77-19.39-19.08-29.13ZM759.99 337.04c9.78 9.1 20.09 17.72 28.88 27.82-2.02 2.78-4.08 5.53-6.25 8.19-4.52-5.87-8.01-12.44-11.9-18.73-3.35-5.9-7.32-11.42-10.73-17.28ZM383.31 460.28c4.98-6.04 8.81-13.03 14.5-18.47-1.21 9.5-3.71 18.83-6.7 27.93-3.13-2.7-5.62-5.98-7.8-9.46ZM367.24 481c2.56-5.55 6.43-10.28 9.93-15.24 3.83 4.17 8.12 8.01 11.31 12.72.2 5.63-2.23 10.99-3.42 16.44-5.92-4.67-12.46-8.56-17.82-13.92Z"/>
  </g>
  <g fill="#d77f41">
    <path d="M332.65 218.61c1.02-.9 2.41-.2 3.47.21 3.25 1.5 5.98 3.85 8.81 5.99-8.4 2.36-16.92 4.24-25.27 6.73 3.97-4.63 8.09-9.25 12.99-12.93ZM258.37 288.4c5.91-3.11 11.71-6.43 17.68-9.43 2.51 9.15 4.19 18.51 6.15 27.79 7.93 35.7 15 71.59 22.77 107.32 9.76 44.85 18.96 89.82 29.47 134.49 1.65 8.53 4.3 16.94 4.54 25.69-7.11-13.32-12.51-27.46-19.31-40.93-3.6-7.21-6.82-14.6-10.12-21.95-17.75-37.37-35.13-74.93-52.41-112.52-12.98-27.44-25.62-55.05-38.4-82.57-.69-1.66-1.31-3.34-1.93-5.02 13.5-8.25 27.78-15.11 41.56-22.87Z"/>
  </g>
  <g fill="#9bcb63">
    <path d="M613.57 303.55c27.98-15.13 55.47-31.17 83.63-45.97 5.23 4.84 8.14 11.44 11.98 17.31 9.51 15.06 19.41 29.87 29.16 44.77 11.57 18.07 23.19 36.12 34.83 54.16 4.14 7.06 9.26 13.53 12.78 20.96-5.75 3.77-11.79 7.07-17.72 10.53-5.94 3.98-13.27 1.71-19.87 1.64-.46-4.51-.49-9.34-2.96-13.32-3.74-5.98-10.33-10.16-17.38-10.82-4.99-.49-10.01-.17-15.01-.19-45.03.01-90.05-.01-135.08.08-2.59-.04-5.35-.46-7.32-2.3-3.78-3.32-5.16-8.36-7.48-12.66-4.52-8.94-14.18-14.87-24.14-15.26-3.78-.19-7.58-.19-11.36-.43 10.54-6.83 21.8-12.47 32.65-18.78 17.7-10.02 35.6-19.67 53.29-29.72ZM356 506.92c2.17-6.22 4.6-12.36 7.78-18.15 6.2 5.04 12.96 9.35 19.09 14.49-1.01 5.29-2.24 10.54-3.91 15.68-7.69-3.93-16.2-6.48-22.96-12.02Z"/>
  </g>
  <g fill="#2d3843">
    <path d="M423.84 372.92c3.27-7.83 11.9-12.1 20.11-11.96 30.7.08 61.4-.05 92.1.01 6.28.04 12.95 1.92 17.24 6.74 3.84 4.57 5.17 10.61 8.56 15.46 3.31 5.02 9.07 8.45 15.15 8.4 48.66-.05 97.33.03 145.99-.04 4.95-.01 10.67.29 14.15 4.34 2.93 2.9 2.55 7.29 2.76 11.07-84.3.2-168.6.06-252.9 0-9.9.27-20.29-.75-29.57 3.46-9.27 3.69-16.41 11.43-20.56 20.37-18.89 42.38-39.69 83.88-58.73 126.2 5.1-18.44 9.3-37.11 13.95-55.67 8.32-34.38 17.21-68.62 25.16-103.09 2.3-8.4 3.32-17.18 6.59-25.29Z"/>
    <path d="M466.43 416.68c5.78-1.22 11.71-.85 17.57-.9 84.67.03 169.34-.01 254-.03 6.98.11 13.99-.42 20.95.24 5.66.46 10.95 5.15 11.04 11.03.22 7.56-4.83 13.77-7.46 20.53-25.76 53.98-52.64 107.43-78.66 161.29-2.99 6.05-7.84 11.31-14.15 13.92-9.26 4.55-19.81 2.77-29.73 3.04-87.34.11-174.68-.03-262.02.06-5 .13-10.91-.27-14.1-4.71-3.79-4.91-1.63-11.49.72-16.53 5.15-10.92 9.81-22.06 15.14-32.9 7.64-14.86 14.39-30.14 21.82-45.11 11.95-26.79 25.29-52.93 37.29-79.69 3.29-7.15 5.58-15.1 11.26-20.84 4.49-4.47 10.14-7.92 16.33-9.4ZM241.85 678.04c9.37-.09 18.73-.06 28.1-.02 3.25 9.5 6.29 19.05 9.45 28.58 2.68 8.05 4.15 16.42 6.09 24.66 2.47-8.04 3.7-16.41 6.28-24.42 3.06-9.61 6.16-19.21 9.35-28.78 9.39-.13 18.79-.08 28.19-.03.17 25.64.17 51.29 0 76.93-6.09.09-12.19.08-18.27 0-.17-20.04.03-40.06.61-60.09-3.06 10.84-5.66 21.82-9.28 32.5-3.14 9.19-5.95 18.5-9.28 27.63-5.01.04-10.01.04-15.02-.07-3.45-9.64-6.56-19.4-9.88-29.09-3.35-9.86-5.7-20.01-8.77-29.96.67 19.69.73 39.38.57 59.08-6.05.08-12.09.09-18.14-.01-.12-25.64-.12-51.27 0-76.91ZM362.95 678c8.19.04 16.39-.2 24.58.19 8.52 25.67 17.63 51.14 26.3 76.76-6.88.1-13.76.11-20.64-.03-1.54-5.36-3.29-10.66-5.09-15.93-8.66.02-17.32-.07-25.98.07-1.54 5.36-3.21 10.67-5 15.95-6.71-.01-13.41.06-20.11-.07 8.61-25.66 17.14-51.35 25.94-76.94m9.92 23c-1.67 8.07-4.12 15.94-6.17 23.92 5.68.14 11.37.12 17.06.03-3.21-10.32-5.95-20.78-8.62-31.24-.9 2.38-1.75 4.79-2.27 7.29ZM409.17 678.05c21.56-.09 43.11-.09 64.67 0 .04 4.96.04 9.93 0 14.9-7.7.12-15.39-.02-23.08.09-.2 20.61-.07 41.23-.05 61.85-6.14.19-12.28.19-18.41 0 .02-20.62.15-41.24-.06-61.85-7.69-.11-15.38.03-23.07-.1-.05-4.96-.05-9.93 0-14.89ZM482.85 678.04c18.09-.07 36.18-.07 54.27 0 .14 4.97.14 9.95.01 14.92-12 .14-24-.07-35.99.09-.06 5.22-.06 10.46.05 15.69 11.02.06 22.03-.13 33.04.08.24 4.92.21 9.85-.15 14.77-10.98-.02-21.96-.23-32.93.08-.06 5.43-.06 10.85-.01 16.28 11.98.15 23.96-.05 35.94.09.13 4.97.13 9.94 0 14.92-18.08.07-36.15.07-54.23 0-.12-25.64-.12-51.28 0-76.92ZM547.85 678.04c9.72-.1 19.43-.02 29.15-.06 7.89-.12 16.4 1.05 22.59 6.4 8.63 7.44 10.21 20.83 5.62 30.9-2.08 4.69-6.34 7.81-10.43 10.64 4.92 9.78 10.44 19.25 15.36 29.03-6.65.11-13.29.11-19.93-.06-4.44-8.7-9.07-17.31-13.49-26.02-3.53-.11-7.05-.13-10.57-.08-.1 8.71.07 17.44-.08 26.16-6.08.1-12.15.1-18.22 0-.12-25.64-.12-51.27 0-76.91m18.3 14.8c-.06 7.11-.06 14.22 0 21.33 5.84.05 11.95.67 17.53-1.47 7.66-3.37 6.63-16.57-1.32-18.95-5.24-1.62-10.82-.92-16.21-.91ZM617.85 678.05c6.07-.11 12.14-.11 18.22 0 .1 25.63.1 51.27 0 76.9-6.08.1-12.15.1-18.22 0-.12-25.63-.12-51.27 0-76.9ZM669.95 678c8.19.04 16.39-.2 24.58.19 8.52 25.67 17.63 51.14 26.3 76.76-6.88.1-13.76.11-20.64-.04-1.54-5.36-3.29-10.65-5.09-15.92-8.66.02-17.32-.07-25.98.07-1.54 5.35-3.22 10.67-5 15.95-6.71-.01-13.41.06-20.11-.07 8.61-25.66 17.14-51.35 25.94-76.94m9.92 23c-1.67 8.07-4.12 15.94-6.17 23.92 5.68.14 11.37.12 17.06.03-3.22-10.3-5.9-20.74-8.63-31.17-.96 2.33-1.69 4.76-2.26 7.22ZM728.85 678.05c6.07-.11 12.14-.11 18.22 0 .15 20.63 0 41.27.06 61.9 10.88.17 21.76-.08 32.64.12.03 4.95.03 9.9 0 14.86-16.97.14-33.94.08-50.92.03-.12-25.64-.12-51.27 0-76.91ZM328.07 794.25c6.08.19 12.25-.57 18.27.52 5.43 1.19 9.04 6.79 8.19 12.25-.1 3.79-3 6.5-5.88 8.54 2.01 1.17 4.19 2.26 5.66 4.15 3.96 5.44 2.15 14.78-4.63 17.03-6.99 2.2-14.46 1-21.67 1.22-.04-14.57-.13-29.14.06-43.71m2.73 2.58c-.21 5.83-.2 11.67-.02 17.5 5.31-.02 10.74.8 15.97-.39 6.68-2.42 6.96-13.21.51-16.09-5.25-1.94-11-.93-16.46-1.02m-.02 20.22c-.18 6.09-.19 12.19 0 18.29 6.29-.08 13.08 1.23 18.96-1.62 5.92-3.49 4.61-13.38-1.68-15.73-5.55-1.86-11.54-.77-17.28-.94ZM381.07 794.25c6.49.28 13.26-.94 19.52 1.23 6.9 2.66 9.39 11.79 5.91 18.03-1.6 2.57-4.2 4.25-6.59 6.02 2.83 6.34 6.69 12.14 9.46 18.51-.77-.08-2.29-.23-3.06-.3-3.14-5.97-6.33-11.91-9.52-17.84-4.34-.19-8.68-.24-13.02-.09-.1 6.01-.17 12.01-.04 18.02-.67.06-2.02.18-2.69.23-.1-14.6-.15-29.21.03-43.81m2.72 2.58c-.2 6.78-.2 13.56 0 20.34 5.42-.1 11.14.94 16.33-1.07 6.98-3.21 6.81-14.87-.13-18.06-5.07-2.28-10.83-1.08-16.2-1.21ZM444.4 794.52c6.06-1.64 13.15-.12 17.47 4.61 4.53 4.95 6.01 11.95 5.81 18.5-.17 5.76-1.94 11.75-6.21 15.82-4.71 4.99-12.53 6.26-18.8 3.78-6.2-2.56-10.4-8.77-11.41-15.29-1.04-6.63-.42-13.78 3.06-19.64 2.16-3.8 5.85-6.67 10.08-7.78m1.13 2.2c-5.83 1.56-9.98 6.88-11.23 12.63-1.54 6.77-1.13 14.51 2.94 20.36 4.03 5.9 12.6 7.84 18.86 4.46 5.97-2.89 8.54-9.86 8.87-16.11.48-6.87-1.37-14.6-7.11-18.93-3.42-2.76-8.14-3.42-12.33-2.41ZM488.8 794.07c.67.13 2 .4 2.67.54 3.65 13.24 7.2 26.51 10.94 39.73 4.07-13.21 7.21-26.7 10.99-40.01 1.12-.11 2.24-.15 3.37-.13 3.87 13.28 7.19 26.72 10.84 40.07 3.49-10.12 5.83-20.59 8.78-30.87 1.18-3.55 1.13-8.35 5.21-9.94-3.26 14.95-8.16 29.51-11.95 44.34-1.19.07-2.36.14-3.54.23-3.78-13.36-7.47-26.74-10.87-40.19-3.95 13.34-7.05 26.92-11.16 40.22-.79 0-2.38.01-3.17.02-2.42-7.43-4.3-15.01-6.44-22.51-1.92-7.16-4.29-14.21-5.67-21.5ZM565.87 797.91c5.02-5.18 13.81-5.32 19.59-1.37 3.19 2.19 4.38 6.09 4.44 9.8-2.56-1.95-3.75-5.03-5.8-7.41-4.83-3.81-12.84-3.56-16.86 1.35-2.5 3.01-2.16 8.13 1.15 10.44 5.06 3.62 11.61 3.92 16.95 7 2.97 1.74 5.35 4.86 5.4 8.42.46 6.88-6.24 12.48-12.79 12.57-4.46.09-9.43-.66-12.75-3.91-2.14-2-2.66-5-3.39-7.69.61.12 1.82.35 2.43.46 2.19 8.87 14.52 11.3 20.89 5.53 3.27-2.9 4.18-8.8.54-11.77-5.61-4.54-13.64-4.21-19.27-8.75-4.47-3.45-4.45-10.82-.53-14.67ZM616.08 794.24c8.27.02 16.54 0 24.82.02-.01.62-.01 1.86-.02 2.48-7.36.03-14.72-.08-22.08.09-.24 5.97-.22 11.94.05 17.92 6.81-.02 13.63-.04 20.45.04 0 .6-.01 1.82-.01 2.42-6.81.08-13.63.06-20.44.04-.28 6.03-.28 12.06-.07 18.1 7.34.21 14.68.13 22.02.05.14.63.41 1.9.54 2.54-8.44.12-16.89.08-25.33.04-.03-14.59-.14-29.17.07-43.74ZM666.07 794.25c6.02.18 12.16-.64 18.09.73 6.33 1.58 10.06 8.64 8.63 14.86-.52 4.51-4.48 7.28-7.87 9.69 2.82 6.34 6.68 12.14 9.45 18.51-.76-.07-2.29-.22-3.06-.3-3.14-5.97-6.34-11.9-9.52-17.84-4.34-.19-8.68-.24-13.02-.09-.1 6.01-.17 12.01-.04 18.02-.67.06-2.02.18-2.69.23-.1-14.6-.15-29.21.03-43.81m2.72 2.58c-.2 6.78-.2 13.56 0 20.34 5.42-.1 11.14.94 16.33-1.07 6.98-3.22 6.81-14.87-.13-18.06-5.07-2.28-10.83-1.08-16.2-1.21Z"/>
  </g>
</svg>
