<svg xmlns="http://www.w3.org/2000/svg" width="1024pt" height="1024pt" viewBox="0 0 1024 1024">
  <g fill="#fff">
    <path d="M0 0h1024v1024H0V0m439.78 188.09c-1.36 4.04-2.52 8.14-3.49 12.29-9.82 38.68-19.32 77.43-28.71 116.22-9.91 40.69-20.12 81.31-30.05 122-1.95 7.82-4.38 15.56-5.33 23.59 8.07-11.42 14.18-24.06 20.55-36.47 3.73-6.97 7.4-13.97 10.92-21.05 3.13-6.39 7.19-12.53 8.26-19.69 1.05-6.57 2.38-13.3 6.1-18.94 2.36-3.92 6.06-6.67 9.46-9.62 3-2.54 4.59-6.23 6.32-9.67 7.48-15.6 15.83-30.76 23.77-46.13 16.24-32.02 33.37-63.59 49.65-95.6-6.92-2.15-14.06-3.39-21.05-5.2-15.46-3.95-30.94-7.8-46.4-11.73m81.53 9.23c-19.65 35.88-38.56 72.17-57.58 108.39-7.72 15.77-16.44 31.02-23.84 46.94 6.37-.15 12.75.09 19.12-.04 4.19.25 6.9-3.38 9.63-5.96 33.93-34.08 67.7-68.31 101.71-102.31 6.11-6.43 12.88-12.25 18.28-19.32-5.67-3.4-11.65-6.21-17.56-9.16-15.34-8.24-30.67-16.53-46.23-24.35-1.21 1.92-2.41 3.84-3.53 5.81m-163.94 10.94c.01 7.58.11 15.16-.27 22.74-.75 11.96-.24 23.97-.96 35.94-.48 7.67-.78 15.35-.78 23.04.03 10.02-.83 20.01-.77 30.03.07 9.68-1 19.32-.94 29 .06 13.01-1.07 25.99-1.04 39 .04 13.68-1.08 27.33-1.01 41 .07 12.68-1.41 25.3-1.24 37.97.14 10.85-1.46 21.69-.37 32.52 3.27-4.42 5.16-9.63 6.69-14.85 8.49-27.96 15.25-56.4 22.22-84.76 6.27-23.73 11.64-47.68 17.58-71.48 5.05-18.91 9.27-38.02 13.95-57.02 5.16-20.7 10.33-41.42 14.87-62.26-13.1-.76-26.23-.3-39.35-.53-9.53-.18-19.05-.37-28.58-.34m217.68 42.8c-25.93 26.06-52.07 51.92-77.74 78.25-7.56 7.72-15.55 15.02-22.94 22.9 9.54.42 19.1.07 28.65.27 5.65.53 10.84-1.99 15.46-4.96 27.46-15.6 54.95-31.15 82.59-46.44 13.72-8.07 27.9-15.3 41.65-23.32 9.2-5.39 18.76-10.14 27.78-15.81-8.93-9.87-18.93-18.69-28.57-27.83-8.86-7.66-16.95-16.17-26.14-23.43-13.87 13.16-27.12 26.95-40.74 40.37m-278.31-5.38c-6.11 1.47-12.26 2.88-18.16 5.08 4.46 22.26 9.78 44.34 14.03 66.65 5.14 24.22 10.53 48.38 15.29 72.68 4.85 24.23 10.72 48.24 15.46 72.5 4.51 22.89 10.17 45.53 14.66 68.43.54 2.49 1.32 4.94 2.2 7.34 1.55-17.92.84-35.93 1.49-53.88 1.19-12.14.26-24.34 1.21-36.48.92-11.66.03-23.37.98-35.02.84-9.49.27-19.02.73-28.52 1.06-14.54.47-29.13 1.12-43.68 1.24-13.88.05-27.85 1.38-41.72.76-9.01.26-18.06.79-27.07.89-13.25.71-26.54.79-39.82-17.3 4.6-34.62 9.11-51.97 13.51M574.99 325c-15.74 9.11-31.94 17.45-47.4 27.04 4.1.26 8.2.22 12.3.51 9.63.66 18.86 6.52 23.23 15.19 2.33 4.3 3.72 9.33 7.5 12.67 2.23 2.06 5.42 2.27 8.31 2.32 48.69-.17 97.39-.07 146.08-.14 8.09-.08 16.15 4.11 20.39 11.05 2.49 3.98 2.51 8.83 2.96 13.36 6.37-.06 13.39 2.19 19.24-1.35 6.21-3.49 12.37-7.09 18.42-10.87-3.33-6.71-7.82-12.72-11.69-19.11-10-15.65-20.15-31.21-30.12-46.88-11.16-17.45-22.79-34.59-33.89-52.08-4.22-6.49-7.58-13.63-13.05-19.21-41 22.04-81.45 45.11-122.28 67.5m-333.52-27.5c-8.27 4.54-16.67 8.85-24.73 13.76.66 1.68 1.31 3.36 2.02 5.03 13.25 28.7 26.5 57.41 39.98 86.01 16.83 36.69 33.84 73.29 51.12 109.77 3.95 8.97 8.05 17.86 12.44 26.62 5.6 11.85 10.56 24 16.68 35.6-.19-5.37-1.17-10.67-2.4-15.88-4.05-19.11-8.96-38.01-12.81-57.16-5.15-23.88-10.44-47.72-15.42-71.63-9.11-41.16-17.23-82.53-26.32-123.69-1.87-9.03-3.62-18.09-5.96-27.01-11.61 6.05-22.98 12.55-34.6 18.58m183.02 74.08c-2.05 3.97-2.98 8.38-4.01 12.7-9.04 39.92-19.3 79.55-28.96 119.32-4.46 17.8-8.46 35.72-13.39 53.4 19.02-42.34 39.85-83.84 58.75-126.23 3.57-7.54 9.09-14.39 16.52-18.4 8.01-4.75 17.49-5.56 26.6-5.36 86.64-.1 173.29.16 259.93-.06-.26-3.77.11-8.18-2.79-11.09-2.99-3.47-7.8-4.24-12.13-4.3-46-.02-92-.02-138 0-6.58-.12-13.91 1.13-19.64-2.91-6.47-4.01-8.5-11.74-12.01-18-3.73-6.83-11.89-9.71-19.3-9.68-25.69-.06-51.37.03-77.06.03-6.28.04-12.58-.44-18.83.26-6.44.74-12.63 4.51-15.68 10.32m41.95 45.11c-6.2 1.46-11.86 4.92-16.35 9.4-5.5 5.55-7.8 13.2-10.95 20.15-12.07 27.01-25.54 53.36-37.59 80.37-7.52 15.2-14.4 30.7-22.15 45.78-4.99 10.17-9.34 20.64-14.21 30.88-2.24 4.93-4.82 10.69-2.44 16.06 2.1 4.62 7.39 6.61 12.2 6.48 88.68.03 177.36.06 266.04 0 9.36-.23 19.24 1.33 28.04-2.74 6.6-2.57 11.75-7.94 14.84-14.23 26.02-53.86 52.9-107.31 78.66-161.29 2.65-6.75 7.67-12.97 7.46-20.52-.08-5.89-5.37-10.58-11.04-11.04-6.97-.65-13.97-.13-20.95-.23-84.33.02-168.66.05-252.99.03-6.2.07-12.47-.38-18.57.9m-83.21 43.63c2.32 3.41 4.89 6.66 7.86 9.52 2.97-9.15 5.52-18.52 6.73-28.08-5.67 5.53-9.53 12.52-14.59 18.56m-14.42 17.52c-.62 1.41-1.98 3.23-.19 4.38 4.89 4.95 11.12 8.3 16.46 12.74 1.07-4.26 2.36-8.47 3.21-12.78.26-1.62.7-3.55-.57-4.87-3.22-4.12-7.02-7.74-10.54-11.59-2.74 4.07-5.95 7.84-8.37 12.12m-12.88 29.15c6.93 5.35 15.34 8.06 23.06 12 1.55-5.2 2.82-10.47 3.96-15.77-6.26-5.01-12.97-9.42-19.19-14.5-3.09 5.87-5.58 12.03-7.83 18.27m-8.27 29.53c4.93 2.35 10.5 2.79 15.76 4.09 3.34.53 6.76 1.86 10.15 1.13 2.11-4.61 2.73-9.71 3.74-14.63-8.52-4.31-17.24-8.19-25.62-12.77-1.91 7.25-4.02 14.63-4.03 22.18m-2.81 8.4c-.4 5.47-.4 10.96-.05 16.43 8.44-.2 17.05-.94 25.14-3.48 1.35-2.57 1.44-5.55 1.88-8.36-9.03-1.28-17.97-3.14-26.97-4.59m1.13 24.69a74.61 74.61 0 0 0 2.75 13.05c4.54-1.61 9.27-2.64 13.82-4.22 5.12-1.64 5-8.06 6.33-12.36-7.62 1.27-15.18 3-22.9 3.53m6.35 20.21c1.43 3.74 2.99 7.44 4.8 11.02 2.79-4.21 4.51-8.98 5.75-13.84-3.54.87-7.05 1.81-10.55 2.82m-110.5 88.2c-.07 25.65-.08 51.3 0 76.96 6.06.03 12.11.03 18.18.01.09-19.72.12-39.43-.58-59.14 2.96 9.71 5.29 19.61 8.51 29.24 3.38 9.95 6.67 19.94 10.1 29.87 5.03.05 10.07.04 15.1.06 3.28-9.43 6.3-18.94 9.48-28.4 3.5-10.45 6.05-21.17 9.03-31.77-.62 20.04-.74 40.08-.63 60.13 6.11.03 12.22.03 18.32.01.12-25.66.12-51.32 0-76.98-9.41-.01-18.82-.05-28.24.03-3.12 9.59-6.28 19.18-9.33 28.8-2.55 8.04-3.87 16.39-6.27 24.47-1.89-8-3.32-16.12-5.86-23.95-3.19-9.8-6.42-19.58-9.66-29.36-9.38 0-18.77-.02-28.15.02m121.07-.03c-8.7 25.64-17.29 51.31-25.92 76.97 6.73.07 13.46.03 20.19.06 1.74-5.3 3.39-10.62 4.95-15.98 8.67-.09 17.34-.02 26.02-.06 1.77 5.29 3.48 10.6 5.05 15.95 6.89.11 13.78.09 20.67.04-8.72-25.63-17.82-51.12-26.33-76.81-8.21-.31-16.42-.12-24.63-.17m46.24.04c.01 4.98.01 9.96 0 14.94 7.71.05 15.43.02 23.14.04.11 20.64.08 41.28.01 61.92 6.14.11 12.28.11 18.43 0-.07-20.64-.1-41.28.01-61.92 7.71-.02 15.42.01 23.13-.04-.01-4.98-.01-9.96 0-14.94-21.57-.05-43.14-.05-64.72 0m73.69-.01c-.07 25.65-.07 51.31 0 76.96 18.09.03 36.19.03 54.29 0 .04-4.99.04-9.98 0-14.96-12.01-.06-24.01.03-36.01-.05.01-5.45.01-10.9 0-16.35 11.03-.19 22.05-.11 33.07-.03.21-4.94.21-9.87.11-14.8-11.04-.11-22.09-.04-33.13-.03-.05-5.25-.05-10.49-.05-15.73 12.02-.08 24.04.01 36.06-.05.05-4.99.05-9.98 0-14.96-18.12-.03-36.23-.03-54.34 0m65 0c-.07 25.65-.07 51.3 0 76.96 6.08.04 12.17.04 18.26 0 .07-8.74.02-17.48.03-26.21 3.53-.01 7.07 0 10.61.06 4.34 8.77 9.1 17.33 13.47 26.09 6.66.12 13.31.11 19.97.05-5.01-9.76-10.4-19.32-15.43-29.06 4.14-2.79 8.39-5.92 10.46-10.63 4.3-9.46 3.21-21.71-4.06-29.43-5.39-5.69-13.47-7.7-21.07-7.81-10.75-.12-21.5-.02-32.24-.02m69.99 0c-.06 25.65-.07 51.31.01 76.96 6.08.03 12.17.03 18.26 0 .05-25.65.06-51.31 0-76.96-6.09-.04-12.18-.04-18.27 0m52.08-.03c-8.71 25.63-17.29 51.31-25.92 76.96 6.73.08 13.45.04 20.19.07 1.73-5.3 3.39-10.62 4.95-15.97 8.67-.1 17.35-.03 26.02-.07 1.77 5.29 3.48 10.6 5.05 15.95 6.89.11 13.78.09 20.67.04-8.72-25.63-17.82-51.12-26.33-76.81-8.21-.31-16.42-.12-24.63-.17m58.93.03c-.07 25.65-.07 51.31 0 76.96 16.99.02 33.98.06 50.97-.02-.03-4.98-.03-9.95 0-14.92-10.9-.11-21.8.02-32.69-.07 0-20.65.05-41.3-.02-61.95-6.09-.04-12.18-.04-18.26 0M328.05 794.24c-.14 14.58-.07 29.16-.05 43.74 7.21-.26 14.69.97 21.69-1.24 7-2.33 8.72-12.26 4.17-17.58-1.47-1.56-3.4-2.54-5.23-3.59 2.9-2.03 5.8-4.75 5.92-8.55.82-5.45-2.78-11.06-8.21-12.25-6.03-1.08-12.2-.33-18.29-.53m53 0c-.13 14.6-.1 29.21-.03 43.82l2.71-.2c-.09-6.03-.08-12.06.02-18.09 4.35-.04 8.71-.03 13.06.07 3.09 6.02 6.45 11.9 9.48 17.96.79.04 2.37.13 3.16.17-3.02-6.23-6.56-12.18-9.61-18.4 2.4-1.79 5.07-3.44 6.66-6.06 3.48-6.23 1-15.37-5.91-18.02-6.27-2.18-13.05-.96-19.54-1.25m63.35.28c-4.23 1.1-7.92 3.99-10.08 7.78-3.48 5.86-4.1 13.01-3.06 19.64 1.01 6.52 5.2 12.74 11.42 15.29 6.27 2.48 14.08 1.2 18.79-3.78 4.65-4.44 6.3-11.08 6.24-17.33-.08-6.06-1.65-12.43-5.84-16.99-4.32-4.73-11.4-6.25-17.47-4.61m44.31-.38c3.66 14.74 7.98 29.31 12.12 43.92.83 0 2.5-.01 3.33-.02 3.91-13.35 7.24-26.86 11.06-40.24 3.41 13.47 7.15 26.85 10.87 40.23 1.18-.08 2.37-.15 3.57-.21 3.72-14.9 8.79-29.47 11.9-44.5-1.3 1.06-2.96 2.01-3.39 3.77-3.68 12.36-6.46 24.99-10.54 37.23-3.63-13.37-7.05-26.81-10.83-40.14-1.14.03-2.29.08-3.42.13-3.59 13.38-7.18 26.75-10.79 40.13-4.04-13.21-7.45-26.6-11.1-39.91-.69-.1-2.09-.3-2.78-.39m77.16 3.77c-3.93 3.85-3.94 11.21.52 14.67 5.65 4.53 13.66 4.22 19.28 8.75 3.64 2.97 2.73 8.88-.54 11.77-4.15 3.88-10.69 3.76-15.59 1.46-2.91-1.28-4.08-4.43-5.3-7.11-.64-.05-1.91-.16-2.54-.21 1 3.52 2.22 7.54 5.78 9.31 5.45 2.64 12.59 3.33 17.79-.24 5.05-3.03 7.36-10.37 3.7-15.3-5.13-6.73-14.93-5.58-21.13-10.75-3.03-2.64-2.9-7.77-.12-10.54 3.52-3.7 9.35-4.23 13.91-2.3 4.05 1.48 4.77 6.54 8.5 8.5-.51-3.74-1.84-7.74-5.25-9.79-5.8-3.48-14.15-3.25-19.01 1.78m50.18-3.68c-.15 14.58-.07 29.17-.05 43.76 8.44.01 16.89.05 25.35-.03l-.48-2.56c-7.38.12-14.76.12-22.13-.01-.11-6.05-.12-12.11.04-18.15 6.85.04 13.69.02 20.54 0v-2.48c-6.85-.02-13.69-.05-20.53.01-.17-6-.17-11.99-.03-17.97 7.38-.09 14.76-.06 22.14-.04 0-.63.01-1.89.01-2.51-8.29 0-16.57.02-24.86-.02m50 .01c-.13 14.6-.09 29.21-.03 43.82.68-.05 2.03-.16 2.71-.21-.09-6.03-.08-12.05.02-18.07 4.35-.05 8.7-.04 13.06.06 3.09 6.02 6.45 11.9 9.48 17.96.79.04 2.37.13 3.16.17-3.01-6.23-6.56-12.18-9.61-18.4 3.44-2.41 7.43-5.19 7.95-9.73 1.43-6.22-2.3-13.28-8.63-14.85-5.93-1.37-12.09-.56-18.11-.75Z"/>
    <path d="M566.13 692.8c5.4.04 10.98-.64 16.24.95 7.95 2.39 8.96 15.57 1.31 18.95-5.58 2.13-11.7 1.48-17.55 1.51-.02-7.14-.02-14.27 0-21.41ZM366.66 724.95c3.09-10.33 5.26-20.92 8.36-31.24 2.91 10.42 5.46 20.95 8.76 31.26-5.71.04-11.42.06-17.12-.02ZM673.66 724.95c3.09-10.33 5.25-20.91 8.36-31.23 2.92 10.42 5.46 20.94 8.76 31.26-5.71.03-11.42.05-17.12-.03ZM445.53 796.73c4.19-1.01 8.91-.35 12.33 2.4 5.74 4.33 7.59 12.06 7.11 18.92-.32 6.26-2.9 13.22-8.87 16.12-6.26 3.38-14.83 1.43-18.87-4.46-4.06-5.86-4.48-13.59-2.93-20.36 1.26-5.75 5.39-11.09 11.23-12.62ZM330.76 796.8c5.47.14 11.24-.87 16.5 1.05 6.45 2.89 6.17 13.66-.51 16.1-5.24 1.16-10.69.37-16.01.42-.1-5.86-.11-11.71.02-17.57ZM383.76 796.8c5.38.18 11.15-1.02 16.24 1.24 7.2 3.29 7.04 15.69-.59 18.35-5.06 1.52-10.45.72-15.65.81-.14-6.8-.14-13.6 0-20.4ZM668.76 796.8c5.38.18 11.15-1.01 16.23 1.24 7.21 3.29 7.05 15.69-.58 18.35-5.06 1.52-10.45.72-15.65.81-.14-6.8-.14-13.6 0-20.4ZM330.74 817.03c5.75.21 11.76-.89 17.32.96 6.3 2.36 7.61 12.24 1.68 15.73-5.89 2.85-12.7 1.52-19 1.66-.1-6.12-.1-12.24 0-18.35Z"/>
  </g>
  <path fill="#45b0d8" d="M439.78 188.09c15.46 3.93 30.94 7.78 46.4 11.73 6.99 1.81 14.13 3.05 21.05 5.2-16.28 32.01-33.41 63.58-49.65 95.6-7.94 15.37-16.29 30.53-23.77 46.13-1.73 3.44-3.32 7.13-6.32 9.67-3.4 2.95-7.1 5.7-9.46 9.62-3.72 5.64-5.05 12.37-6.1 18.94-1.07 7.16-5.13 13.3-8.26 19.69-3.52 7.08-7.19 14.08-10.92 21.05-6.37 12.41-12.48 25.05-20.55 36.47.95-8.03 3.38-15.77 5.33-23.59 9.93-40.69 20.14-81.31 30.05-122 9.39-38.79 18.89-77.54 28.71-116.22.97-4.15 2.13-8.25 3.49-12.29Z"/>
  <path fill="#3884c3" d="M521.31 197.32c1.12-1.97 2.32-3.89 3.53-5.81 15.56 7.82 30.89 16.11 46.23 24.35 5.91 2.95 11.89 5.76 17.56 9.16-5.4 7.07-12.17 12.89-18.28 19.32-34.01 34-67.78 68.23-101.71 102.31-2.73 2.58-5.44 6.21-9.63 5.96-6.37.13-12.75-.11-19.12.04 7.4-15.92 16.12-31.17 23.84-46.94 19.02-36.22 37.93-72.51 57.58-108.39Z"/>
  <g fill="#6ab886">
    <path d="M357.37 208.26c9.53-.03 19.05.16 28.58.34 13.12.23 26.25-.23 39.35.53-4.54 20.84-9.71 41.56-14.87 62.26-4.68 19-8.9 38.11-13.95 57.02-5.94 23.8-11.31 47.75-17.58 71.48-6.97 28.36-13.73 56.8-22.22 84.76-1.53 5.22-3.42 10.43-6.69 14.85-1.09-10.83.51-21.67.37-32.52-.17-12.67 1.31-25.29 1.24-37.97-.07-13.67 1.05-27.32 1.01-41-.03-13.01 1.1-25.99 1.04-39-.06-9.68 1.01-19.32.94-29-.06-10.02.8-20.01.77-30.03 0-7.69.3-15.37.78-23.04.72-11.97.21-23.98.96-35.94.38-7.58.28-15.16.27-22.74ZM347.66 536.52c.01-7.55 2.12-14.93 4.03-22.18 8.38 4.58 17.1 8.46 25.62 12.77-1.01 4.92-1.63 10.02-3.74 14.63-3.39.73-6.81-.6-10.15-1.13-5.26-1.3-10.83-1.74-15.76-4.09ZM344.85 544.92c9 1.45 17.94 3.31 26.97 4.59-.44 2.81-.53 5.79-1.88 8.36-8.09 2.54-16.7 3.28-25.14 3.48-.35-5.47-.35-10.96.05-16.43Z"/>
  </g>
  <g fill="#6f4994">
    <path d="M575.05 251.06c13.62-13.42 26.87-27.21 40.74-40.37 9.19 7.26 17.28 15.77 26.14 23.43 9.64 9.14 19.64 17.96 28.57 27.83-9.02 5.67-18.58 10.42-27.78 15.81-13.75 8.02-27.93 15.25-41.65 23.32-27.64 15.29-55.13 30.84-82.59 46.44-4.62 2.97-9.81 5.49-15.46 4.96-9.55-.2-19.11.15-28.65-.27 7.39-7.88 15.38-15.18 22.94-22.9 25.67-26.33 51.81-52.19 77.74-78.25ZM383.23 460.32c5.06-6.04 8.92-13.03 14.59-18.56-1.21 9.56-3.76 18.93-6.73 28.08-2.97-2.86-5.54-6.11-7.86-9.52ZM368.81 477.84c2.42-4.28 5.63-8.05 8.37-12.12 3.52 3.85 7.32 7.47 10.54 11.59 1.27 1.32.83 3.25.57 4.87-.85 4.31-2.14 8.52-3.21 12.78-5.34-4.44-11.57-7.79-16.46-12.74-1.79-1.15-.43-2.97.19-4.38Z"/>
  </g>
  <g fill="#f4b24a">
    <path d="M296.74 245.68c17.35-4.4 34.67-8.91 51.97-13.51-.08 13.28.1 26.57-.79 39.82-.53 9.01-.03 18.06-.79 27.07-1.33 13.87-.14 27.84-1.38 41.72-.65 14.55-.06 29.14-1.12 43.68-.46 9.5.11 19.03-.73 28.52-.95 11.65-.06 23.36-.98 35.02-.95 12.14-.02 24.34-1.21 36.48-.65 17.95.06 35.96-1.49 53.88-.88-2.4-1.66-4.85-2.2-7.34-4.49-22.9-10.15-45.54-14.66-68.43-4.74-24.26-10.61-48.27-15.46-72.5-4.76-24.3-10.15-48.46-15.29-72.68-4.25-22.31-9.57-44.39-14.03-66.65 5.9-2.2 12.05-3.61 18.16-5.08ZM345.98 569.61c7.72-.53 15.28-2.26 22.9-3.53-1.33 4.3-1.21 10.72-6.33 12.36-4.55 1.58-9.28 2.61-13.82 4.22a74.61 74.61 0 0 1-2.75-13.05ZM352.33 589.82c3.5-1.01 7.01-1.95 10.55-2.82-1.24 4.86-2.96 9.63-5.75 13.84-1.81-3.58-3.37-7.28-4.8-11.02Z"/>
  </g>
  <g fill="#9bcb63">
    <path d="M574.99 325c40.83-22.39 81.28-45.46 122.28-67.5 5.47 5.58 8.83 12.72 13.05 19.21 11.1 17.49 22.73 34.63 33.89 52.08 9.97 15.67 20.12 31.23 30.12 46.88 3.87 6.39 8.36 12.4 11.69 19.11-6.05 3.78-12.21 7.38-18.42 10.87-5.85 3.54-12.87 1.29-19.24 1.35-.45-4.53-.47-9.38-2.96-13.36-4.24-6.94-12.3-11.13-20.39-11.05-48.69.07-97.39-.03-146.08.14-2.89-.05-6.08-.26-8.31-2.32-3.78-3.34-5.17-8.37-7.5-12.67-4.37-8.67-13.6-14.53-23.23-15.19-4.1-.29-8.2-.25-12.3-.51 15.46-9.59 31.66-17.93 47.4-27.04ZM355.93 506.99c2.25-6.24 4.74-12.4 7.83-18.27 6.22 5.08 12.93 9.49 19.19 14.5-1.14 5.3-2.41 10.57-3.96 15.77-7.72-3.94-16.13-6.65-23.06-12Z"/>
  </g>
  <path fill="#d77f41" d="M241.47 297.5c11.62-6.03 22.99-12.53 34.6-18.58 2.34 8.92 4.09 17.98 5.96 27.01 9.09 41.16 17.21 82.53 26.32 123.69 4.98 23.91 10.27 47.75 15.42 71.63 3.85 19.15 8.76 38.05 12.81 57.16 1.23 5.21 2.21 10.51 2.4 15.88-6.12-11.6-11.08-23.75-16.68-35.6-4.39-8.76-8.49-17.65-12.44-26.62-17.28-36.48-34.29-73.08-51.12-109.77-13.48-28.6-26.73-57.31-39.98-86.01-.71-1.67-1.36-3.35-2.02-5.03 8.06-4.91 16.46-9.22 24.73-13.76Z"/>
  <g fill="#2d3843">
    <path d="M424.49 371.58c3.05-5.81 9.24-9.58 15.68-10.32 6.25-.7 12.55-.22 18.83-.26 25.69 0 51.37-.09 77.06-.03 7.41-.03 15.57 2.85 19.3 9.68 3.51 6.26 5.54 13.99 12.01 18 5.73 4.04 13.06 2.79 19.64 2.91 46-.02 92-.02 138 0 4.33.06 9.14.83 12.13 4.3 2.9 2.91 2.53 7.32 2.79 11.09-86.64.22-173.29-.04-259.93.06-9.11-.2-18.59.61-26.6 5.36-7.43 4.01-12.95 10.86-16.52 18.4-18.9 42.39-39.73 83.89-58.75 126.23 4.93-17.68 8.93-35.6 13.39-53.4 9.66-39.77 19.92-79.4 28.96-119.32 1.03-4.32 1.96-8.73 4.01-12.7Z"/>
    <path d="M466.44 416.69c6.1-1.28 12.37-.83 18.57-.9 84.33.02 168.66-.01 252.99-.03 6.98.1 13.98-.42 20.95.23 5.67.46 10.96 5.15 11.04 11.04.21 7.55-4.81 13.77-7.46 20.52-25.76 53.98-52.64 107.43-78.66 161.29-3.09 6.29-8.24 11.66-14.84 14.23-8.8 4.07-18.68 2.51-28.04 2.74-88.68.06-177.36.03-266.04 0-4.81.13-10.1-1.86-12.2-6.48-2.38-5.37.2-11.13 2.44-16.06 4.87-10.24 9.22-20.71 14.21-30.88 7.75-15.08 14.63-30.58 22.15-45.78 12.05-27.01 25.52-53.36 37.59-80.37 3.15-6.95 5.45-14.6 10.95-20.15 4.49-4.48 10.15-7.94 16.35-9.4ZM241.83 678.02c9.38-.04 18.77-.02 28.15-.02 3.24 9.78 6.47 19.56 9.66 29.36 2.54 7.83 3.97 15.95 5.86 23.95 2.4-8.08 3.72-16.43 6.27-24.47 3.05-9.62 6.21-19.21 9.33-28.8 9.42-.08 18.83-.04 28.24-.03.12 25.66.12 51.32 0 76.98-6.1.02-12.21.02-18.32-.01-.11-20.05.01-40.09.63-60.13-2.98 10.6-5.53 21.32-9.03 31.77-3.18 9.46-6.2 18.97-9.48 28.4-5.03-.02-10.07-.01-15.1-.06-3.43-9.93-6.72-19.92-10.1-29.87-3.22-9.63-5.55-19.53-8.51-29.24.7 19.71.67 39.42.58 59.14-6.07.02-12.12.02-18.18-.01-.08-25.66-.07-51.31 0-76.96ZM362.9 677.99c8.21.05 16.42-.14 24.63.17 8.51 25.69 17.61 51.18 26.33 76.81-6.89.05-13.78.07-20.67-.04-1.57-5.35-3.28-10.66-5.05-15.95-8.68.04-17.35-.03-26.02.06-1.56 5.36-3.21 10.68-4.95 15.98-6.73-.03-13.46.01-20.19-.06 8.63-25.66 17.22-51.33 25.92-76.97m3.76 46.96c5.7.08 11.41.06 17.12.02-3.3-10.31-5.85-20.84-8.76-31.26-3.1 10.32-5.27 20.91-8.36 31.24ZM409.14 678.03c21.58-.05 43.15-.05 64.72 0-.01 4.98-.01 9.96 0 14.94-7.71.05-15.42.02-23.13.04-.11 20.64-.08 41.28-.01 61.92-6.15.11-12.29.11-18.43 0 .07-20.64.1-41.28-.01-61.92-7.71-.02-15.43.01-23.14-.04.01-4.98.01-9.96 0-14.94ZM482.83 678.02c18.11-.03 36.22-.03 54.34 0 .05 4.98.05 9.97 0 14.96-12.02.06-24.04-.03-36.06.05 0 5.24 0 10.48.05 15.73 11.04-.01 22.09-.08 33.13.03.1 4.93.1 9.86-.11 14.8-11.02-.08-22.04-.16-33.07.03.01 5.45.01 10.9 0 16.35 12 .08 24-.01 36.01.05.04 4.98.04 9.97 0 14.96-18.1.03-36.2.03-54.29 0-.07-25.65-.07-51.31 0-76.96ZM547.83 678.02c10.74 0 21.49-.1 32.24.02 7.6.11 15.68 2.12 21.07 7.81 7.27 7.72 8.36 19.97 4.06 29.43-2.07 4.71-6.32 7.84-10.46 10.63 5.03 9.74 10.42 19.3 15.43 29.06-6.66.06-13.31.07-19.97-.05-4.37-8.76-9.13-17.32-13.47-26.09-3.54-.06-7.08-.07-10.61-.06-.01 8.73.04 17.47-.03 26.21-6.09.04-12.18.04-18.26 0-.07-25.66-.07-51.31 0-76.96m18.3 14.78c-.02 7.14-.02 14.27 0 21.41 5.85-.03 11.97.62 17.55-1.51 7.65-3.38 6.64-16.56-1.31-18.95-5.26-1.59-10.84-.91-16.24-.95ZM617.82 678.02c6.09-.04 12.18-.04 18.27 0 .06 25.65.05 51.31 0 76.96-6.09.03-12.18.03-18.26 0-.08-25.65-.07-51.31-.01-76.96ZM669.9 677.99c8.21.05 16.42-.14 24.63.17 8.51 25.69 17.61 51.18 26.33 76.81-6.89.05-13.78.07-20.67-.04-1.57-5.35-3.28-10.66-5.05-15.95-8.67.04-17.35-.03-26.02.07a525.94 525.94 0 0 1-4.95 15.97c-6.74-.03-13.46.01-20.19-.07 8.63-25.65 17.21-51.33 25.92-76.96m3.76 46.96c5.7.08 11.41.06 17.12.03-3.3-10.32-5.84-20.84-8.76-31.26-3.11 10.32-5.27 20.9-8.36 31.23ZM728.83 678.02c6.08-.04 12.17-.04 18.26 0 .07 20.65.02 41.3.02 61.95 10.89.09 21.79-.04 32.69.07-.03 4.97-.03 9.94 0 14.92-16.99.08-33.98.04-50.97.02-.07-25.65-.07-51.31 0-76.96ZM328.05 794.24c6.09.2 12.26-.55 18.29.53 5.43 1.19 9.03 6.8 8.21 12.25-.12 3.8-3.02 6.52-5.92 8.55 1.83 1.05 3.76 2.03 5.23 3.59 4.55 5.32 2.83 15.25-4.17 17.58-7 2.21-14.48.98-21.69 1.24-.02-14.58-.09-29.16.05-43.74m2.71 2.56c-.13 5.86-.12 11.71-.02 17.57 5.32-.05 10.77.74 16.01-.42 6.68-2.44 6.96-13.21.51-16.1-5.26-1.92-11.03-.91-16.5-1.05m-.02 20.23c-.1 6.11-.1 12.23 0 18.35 6.3-.14 13.11 1.19 19-1.66 5.93-3.49 4.62-13.37-1.68-15.73-5.56-1.85-11.57-.75-17.32-.96ZM381.05 794.24c6.49.29 13.27-.93 19.54 1.25 6.91 2.65 9.39 11.79 5.91 18.02-1.59 2.62-4.26 4.27-6.66 6.06 3.05 6.22 6.59 12.17 9.61 18.4-.79-.04-2.37-.13-3.16-.17-3.03-6.06-6.39-11.94-9.48-17.96-4.35-.1-8.71-.11-13.06-.07-.1 6.03-.11 12.06-.02 18.09l-2.71.2c-.07-14.61-.1-29.22.03-43.82m2.71 2.56c-.14 6.8-.14 13.6 0 20.4 5.2-.09 10.59.71 15.65-.81 7.63-2.66 7.79-15.06.59-18.35-5.09-2.26-10.86-1.06-16.24-1.24ZM444.4 794.52c6.07-1.64 13.15-.12 17.47 4.61 4.19 4.56 5.76 10.93 5.84 16.99.06 6.25-1.59 12.89-6.24 17.33-4.71 4.98-12.52 6.26-18.79 3.78-6.22-2.55-10.41-8.77-11.42-15.29-1.04-6.63-.42-13.78 3.06-19.64 2.16-3.79 5.85-6.68 10.08-7.78m1.13 2.21c-5.84 1.53-9.97 6.87-11.23 12.62-1.55 6.77-1.13 14.5 2.93 20.36 4.04 5.89 12.61 7.84 18.87 4.46 5.97-2.9 8.55-9.86 8.87-16.12.48-6.86-1.37-14.59-7.11-18.92-3.42-2.75-8.14-3.41-12.33-2.4ZM488.71 794.14c.69.09 2.09.29 2.78.39 3.65 13.31 7.06 26.7 11.1 39.91 3.61-13.38 7.2-26.75 10.79-40.13 1.13-.05 2.28-.1 3.42-.13 3.78 13.33 7.2 26.77 10.83 40.14 4.08-12.24 6.86-24.87 10.54-37.23.43-1.76 2.09-2.71 3.39-3.77-3.11 15.03-8.18 29.6-11.9 44.5-1.2.06-2.39.13-3.57.21-3.72-13.38-7.46-26.76-10.87-40.23-3.82 13.38-7.15 26.89-11.06 40.24-.83.01-2.5.02-3.33.02-4.14-14.61-8.46-29.18-12.12-43.92ZM565.87 797.91c4.86-5.03 13.21-5.26 19.01-1.78 3.41 2.05 4.74 6.05 5.25 9.79-3.73-1.96-4.45-7.02-8.5-8.5-4.56-1.93-10.39-1.4-13.91 2.3-2.78 2.77-2.91 7.9.12 10.54 6.2 5.17 16 4.02 21.13 10.75 3.66 4.93 1.35 12.27-3.7 15.3-5.2 3.57-12.34 2.88-17.79.24-3.56-1.77-4.78-5.79-5.78-9.31.63.05 1.9.16 2.54.21 1.22 2.68 2.39 5.83 5.3 7.11 4.9 2.3 11.44 2.42 15.59-1.46 3.27-2.89 4.18-8.8.54-11.77-5.62-4.53-13.63-4.22-19.28-8.75-4.46-3.46-4.45-10.82-.52-14.67ZM616.05 794.23c8.29.04 16.57.02 24.86.02 0 .62-.01 1.88-.01 2.51-7.38-.02-14.76-.05-22.14.04-.14 5.98-.14 11.97.03 17.97 6.84-.06 13.68-.03 20.53-.01v2.48c-6.85.02-13.69.04-20.54 0-.16 6.04-.15 12.1-.04 18.15 7.37.13 14.75.13 22.13.01l.48 2.56c-8.46.08-16.91.04-25.35.03-.02-14.59-.1-29.18.05-43.76ZM666.05 794.24c6.02.19 12.18-.62 18.11.75 6.33 1.57 10.06 8.63 8.63 14.85-.52 4.54-4.51 7.32-7.95 9.73 3.05 6.22 6.6 12.17 9.61 18.4-.79-.04-2.37-.13-3.16-.17-3.03-6.06-6.39-11.94-9.48-17.96-4.36-.1-8.71-.11-13.06-.06-.1 6.02-.11 12.04-.02 18.07-.68.05-2.03.16-2.71.21-.06-14.61-.1-29.22.03-43.82m2.71 2.56c-.14 6.8-.14 13.6 0 20.4 5.2-.09 10.59.71 15.65-.81 7.63-2.66 7.79-15.06.58-18.35-5.08-2.25-10.85-1.06-16.23-1.24Z"/>
  </g>
</svg>
