<?xml version="1.0" encoding="UTF-8" standalone="no"?><!DOCTYPE svg PUBLIC "-//W3C//DTD SVG 1.1//EN" "http://www.w3.org/Graphics/SVG/1.1/DTD/svg11.dtd"><svg width="100%" height="100%" viewBox="0 0 1250 1250" version="1.1" xmlns="http://www.w3.org/2000/svg" xmlns:xlink="http://www.w3.org/1999/xlink" xml:space="preserve" xmlns:serif="http://www.serif.com/" style="fill-rule:evenodd;clip-rule:evenodd;stroke-linejoin:round;stroke-miterlimit:2;"><g id="Base"><path id="b" d="M210.029,265.086l207.486,119.792l414.97,-239.584l-207.485,-119.791l-414.971,239.583Z" style="fill:#3abbd9;"/><path id="o" d="M625,983.836l-207.485,-119.792l622.456,-359.375l-0,239.584l-414.971,239.583Z" style="fill:#f28237;"/><path id="p2" d="M832.485,384.878l-207.485,-119.792l207.485,-119.792l207.486,119.792l-0,239.583l-207.486,119.792l0,-239.583Z" style="fill:#be6ffd;"/><path id="g" d="M625,744.253l-207.485,-119.792l-207.486,119.792l207.486,119.791l207.485,-119.791Z" style="fill:#a1d04d;"/><path id="p" d="M417.515,864.044l-0,239.584l-207.486,119.791l0,-479.166l207.486,119.791Z" style="fill:#be6ffd;"/></g><g id="Soft-Shadows" serif:id="Soft Shadows" opacity="0.2"><path d="M1039.97,504.669l-208.419,120.331l0.933,-96.372l207.486,-119.792l-0,95.833Z" style="fill:url(#_Linear1);"/><path d="M625,265.086l82.994,47.917l207.485,-119.792l-83.927,-48.456l-206.552,120.331Z" style="fill:url(#_Linear2);"/><path d="M417.515,864.044l-0,95.834l-207.486,-119.792l0,-95.833l207.486,119.791Z" style="fill:url(#_Linear3);"/><path d="M417.515,864.044l-82.994,-47.916l207.485,-119.792l82.994,47.917l-207.485,119.791Z" style="fill:url(#_Linear4);"/></g><g id="Shadows" opacity="0.22"><path d="M832.485,145.294l-10.374,-5.989l-414.971,239.583l10.375,5.99"/><path d="M1039.97,265.086l-10.375,-5.99l0,251.563l10.375,-5.99"/><path d="M614.626,977.846l10.374,5.99l414.971,-239.583l-0,-239.584l-10.375,17.969l0,215.625l-414.97,239.583Z"/><path d="M220.404,1205.45l-10.375,17.968l207.486,-119.791l-0,-239.584l-10.375,-5.989l0,239.583l-186.736,107.813Z"/></g><g id="Hints" opacity="0.4"><path d="M210.029,265.086l10.375,5.99l414.97,-239.584l-10.374,-5.989l-414.971,239.583Z" style="fill:#fff;"/><path d="M210.029,1223.42l10.375,-17.968l-0,-455.209l207.485,-119.791l-11.308,-5.451l-206.552,119.253l0,479.166Z" style="fill:#fff;"/><path d="M831.552,625l11.308,-6.529l-0,-227.604l-10.375,-5.989l-0.933,240.122Z" style="fill:#fff;"/><path d="M417.515,864.044l10.374,5.99l601.707,-347.396l10.375,-17.969l-622.456,359.375Z" style="fill:#fff;"/></g><defs><linearGradient id="_Linear1" x1="0" y1="0" x2="1" y2="0" gradientUnits="userSpaceOnUse" gradientTransform="matrix(41.4971,71.875,-71.875,41.4971,998.473,432.794)"><stop offset="0" style="stop-color:#000;stop-opacity:0"/><stop offset="0.53" style="stop-color:#000;stop-opacity:0.23"/><stop offset="1" style="stop-color:#000;stop-opacity:1"/></linearGradient><linearGradient id="_Linear2" x1="0" y1="0" x2="1" y2="0" gradientUnits="userSpaceOnUse" gradientTransform="matrix(-41.4971,-71.875,71.875,-41.4971,873.982,217.169)"><stop offset="0" style="stop-color:#000;stop-opacity:0"/><stop offset="0.53" style="stop-color:#000;stop-opacity:0.23"/><stop offset="1" style="stop-color:#000;stop-opacity:1"/></linearGradient><linearGradient id="_Linear3" x1="0" y1="0" x2="1" y2="0" gradientUnits="userSpaceOnUse" gradientTransform="matrix(41.4971,-71.875,71.875,41.4971,376.018,935.919)"><stop offset="0" style="stop-color:#000;stop-opacity:0"/><stop offset="0.53" style="stop-color:#000;stop-opacity:0.23"/><stop offset="1" style="stop-color:#000;stop-opacity:1"/></linearGradient><linearGradient id="_Linear4" x1="0" y1="0" x2="1" y2="0" gradientUnits="userSpaceOnUse" gradientTransform="matrix(41.4971,71.875,-71.875,41.4971,417.515,768.211)"><stop offset="0" style="stop-color:#000;stop-opacity:0"/><stop offset="0.53" style="stop-color:#000;stop-opacity:0.23"/><stop offset="1" style="stop-color:#000;stop-opacity:1"/></linearGradient></defs></svg>