<svg width="824" height="824" viewBox="0 0 824 824" fill="none" xmlns="http://www.w3.org/2000/svg">
  <g id="Logo">
    <g id="Folder">
      <path id="F Bottom"
        d="M361.933 421.8C370.067 420.093 378.427 420.693 386.693 420.6C499.133 420.627 611.573 420.587 724.013 420.56C733.32 420.693 742.653 420 751.947 420.867C759.507 421.48 766.56 427.733 766.667 435.587C766.947 445.653 760.253 453.947 756.72 462.947C722.373 534.92 686.533 606.187 651.84 678C647.72 686.387 640.853 693.547 632.053 696.973C620.32 702.4 607.147 700.32 594.667 700.627C476.427 700.707 358.187 700.667 239.947 700.627C233.533 700.8 226.48 698.147 223.68 691.987C220.507 684.827 223.947 677.147 226.933 670.573C233.427 656.92 239.227 642.96 245.88 629.4C256.213 609.293 265.387 588.627 275.413 568.36C291.48 532.347 309.44 497.213 325.533 461.2C329.733 451.933 332.8 441.733 340.133 434.333C346.12 428.36 353.667 423.747 361.933 421.8Z"
        fill="#2D3843" />
      <path id="F Top"
        d="M306 361.653C310.067 353.907 318.32 348.88 326.907 347.893C335.24 346.96 343.64 347.6 352.013 347.547C386.267 347.547 420.507 347.427 454.76 347.507C464.64 347.467 475.52 351.307 480.493 360.413C485.173 368.76 487.88 379.067 496.507 384.413C504.147 389.8 513.92 388.133 522.693 388.293C584.027 388.267 645.36 388.267 706.693 388.293C712.467 388.373 718.88 389.4 722.867 394.027C726.733 397.907 726.24 403.787 726.587 408.813C611.067 409.107 495.533 408.76 380.013 408.893C367.867 408.627 355.227 409.707 344.547 416.04C334.64 421.387 327.28 430.52 322.52 440.573C297.32 497.093 269.547 552.427 244.187 608.88C250.76 585.307 256.093 561.413 262.04 537.68C274.92 484.653 288.6 431.813 300.653 378.587C302.027 372.827 303.267 366.947 306 361.653Z"
        fill="#2D3843" />
    </g>
    <g id="Cards">
      <g id="Brown">
        <path id="B Bottom"
          d="M209.787 652.64C214.453 651.293 219.133 650.04 223.853 648.88C222.2 655.36 219.907 661.72 216.187 667.333C213.773 662.56 211.693 657.627 209.787 652.64Z"
          fill="#D77F41" />
        <path id="B Top"
          d="M61.9733 262.88C77.4667 254.84 92.6267 246.173 108.107 238.107C111.227 250 113.56 262.08 116.053 274.12C128.173 329 139 384.16 151.147 439.04C157.787 470.92 164.84 502.707 171.707 534.547C176.84 560.08 183.387 585.28 188.787 610.76C190.427 617.707 191.733 624.773 191.987 631.933C183.827 616.467 177.213 600.267 169.747 584.467C163.893 572.787 158.427 560.933 153.16 548.973C130.12 500.333 107.44 451.533 85 402.613C67.0266 364.48 49.36 326.2 31.6933 287.933C30.7467 285.707 29.88 283.467 29 281.227C39.7467 274.68 50.9467 268.933 61.9733 262.88Z"
          fill="#D77F41" />
      </g>
      <g id="Orange">
        <path id="O Bottom"
          d="M201.32 625.693C211.613 624.987 221.693 622.68 231.853 620.987C230.08 626.72 230.24 635.28 223.413 637.467C217.347 639.573 211.04 640.947 204.987 643.093C203.24 637.413 202.027 631.587 201.32 625.693Z"
          fill="#F4B24A" />
        <path id="O Top"
          d="M135.667 193.787C158.8 187.92 181.893 181.907 204.96 175.773C204.853 193.48 205.093 211.2 203.907 228.867C203.2 240.88 203.867 252.947 202.853 264.96C201.08 283.453 202.667 302.08 201.013 320.587C200.147 339.987 200.933 359.44 199.52 378.827C198.907 391.493 199.667 404.2 198.547 416.853C197.28 432.387 198.467 448 197.24 463.547C195.973 479.733 197.213 496 195.627 512.187C194.76 536.12 195.707 560.133 193.64 584.027C192.467 580.827 191.427 577.56 190.707 574.24C184.72 543.707 177.173 513.52 171.16 483C164.84 450.653 157.013 418.64 150.547 386.333C144.2 353.933 137.013 321.72 130.16 289.427C124.493 259.68 117.4 230.24 111.453 200.56C119.32 197.627 127.52 195.747 135.667 193.787Z"
          fill="#F4B24A" />
      </g>
      <g id="Dark Green">
        <path id="DG Bottom"
          d="M199.813 592.773C211.813 594.707 223.733 597.187 235.773 598.893C235.187 602.64 235.067 606.613 233.267 610.04C222.48 613.427 211 614.413 199.747 614.68C199.28 607.387 199.28 600.067 199.813 592.773Z"
          fill="#6AB886" />
        <path id="DG Top"
          d="M216.507 143.893C229.213 143.853 241.907 144.107 254.613 144.347C272.107 144.653 289.613 144.04 307.08 145.053C301.027 172.84 294.133 200.467 287.253 228.067C281.013 253.4 275.387 278.88 268.653 304.093C260.733 335.827 253.573 367.76 245.213 399.4C235.92 437.213 226.907 475.133 215.587 512.413C213.547 519.373 211.027 526.32 206.667 532.213C205.213 517.773 207.347 503.32 207.16 488.853C206.933 471.96 208.907 455.133 208.813 438.227C208.72 420 210.213 401.8 210.16 383.56C210.12 366.213 211.627 348.907 211.547 331.56C211.467 318.653 212.893 305.8 212.8 292.893C212.72 279.533 213.867 266.213 213.827 252.853C213.827 242.6 214.227 232.36 214.867 222.133C215.827 206.173 215.147 190.16 216.147 174.213C216.653 164.107 216.52 154 216.507 143.893Z"
          fill="#6AB886" />
      </g>
      <g id="Light Blue">
        <path id="LB Bottom"
          d="M203.56 581.573C203.573 571.507 206.387 561.667 208.933 552C220.107 558.107 231.733 563.28 243.093 569.027C241.747 575.587 240.92 582.387 238.107 588.533C233.587 589.507 229.027 587.733 224.573 587.027C217.56 585.293 210.133 584.707 203.56 581.573Z"
          fill="#45B0D8" />
        <path id="LB Top"
          d="M326.387 117C347 122.24 367.64 127.373 388.253 132.64C397.573 135.053 407.093 136.707 416.32 139.573C394.613 182.253 371.773 224.347 350.12 267.04C339.533 287.533 328.4 307.747 318.427 328.547C316.12 333.133 314 338.053 310 341.44C305.467 345.373 300.533 349.04 297.387 354.267C292.427 361.787 290.653 370.76 289.253 379.52C287.827 389.067 282.413 397.253 278.24 405.773C273.547 415.213 268.653 424.547 263.68 433.84C255.187 450.387 247.04 467.24 236.28 482.467C237.547 471.76 240.787 461.44 243.387 451.013C256.627 396.76 270.24 342.6 283.453 288.347C295.973 236.627 308.64 184.96 321.733 133.387C323.027 127.853 324.573 122.387 326.387 117Z"
          fill="#45B0D8" />
      </g>
      <g id="Dark Blue">
        <path id="DB Bottom"
          d="M214.587 542.2C217.587 533.88 220.907 525.667 225.027 517.84C233.32 524.613 242.267 530.493 250.613 537.173C249.093 544.24 247.4 551.267 245.333 558.2C235.04 552.947 223.827 549.333 214.587 542.2Z"
          fill="#3884C3" />
        <path id="DB Top"
          d="M435.093 129.307C436.587 126.68 438.187 124.12 439.8 121.56C460.547 131.987 480.987 143.04 501.44 154.027C509.32 157.96 517.293 161.707 524.853 166.24C517.653 175.667 508.627 183.427 500.48 192C455.133 237.333 410.107 282.973 364.867 328.413C361.227 331.853 357.613 336.693 352.027 336.36C343.533 336.533 335.027 336.213 326.533 336.413C336.4 315.187 348.027 294.853 358.32 273.827C383.68 225.533 408.893 177.147 435.093 129.307Z"
          fill="#3884C3" />
      </g>
      <g id="Purple">
        <path id="P Bottom"
          d="M232.76 503.333C235.987 497.627 240.267 492.6 243.92 487.173C248.613 492.307 253.68 497.133 257.973 502.627C259.667 504.387 259.08 506.96 258.733 509.12C257.6 514.867 255.88 520.48 254.453 526.16C247.333 520.24 239.027 515.773 232.507 509.173C230.12 507.64 231.933 505.213 232.76 503.333Z"
          fill="#6F4994" />
        <path id="P Top"
          d="M509.747 200.96C527.907 183.067 545.573 164.68 564.067 147.133C576.32 156.813 587.107 168.16 598.92 178.373C611.773 190.56 625.107 202.32 637.013 215.48C624.987 223.04 612.24 229.373 599.973 236.56C581.64 247.253 562.733 256.893 544.44 267.653C507.587 288.04 470.933 308.773 434.32 329.573C428.16 333.533 421.24 336.893 413.707 336.187C400.973 335.92 388.227 336.387 375.507 335.827C385.36 325.32 396.013 315.587 406.093 305.293C440.32 270.187 475.173 235.707 509.747 200.96Z"
          fill="#6F4994" />
      </g>
      <g id="Light Green">
        <path id="LG Bottom"
          d="M250.987 479.973C257.733 471.92 262.88 462.6 270.44 455.227C268.827 467.973 265.427 480.467 261.467 492.667C257.507 488.853 254.08 484.52 250.987 479.973Z"
          fill="#9BCB63" />
        <path id="LG Top"
          d="M510.213 299.213C564.653 269.36 618.587 238.6 673.253 209.213C679.56 217.38 690.653 234.827 690.653 234.827C705.453 258.147 720.96 281 735.84 304.267C749.133 325.16 762.667 345.907 776 366.773C781.16 375.293 787.147 383.307 791.587 392.253C783.52 397.293 775.306 402.093 767.026 406.747C759.226 411.467 749.866 408.467 741.373 408.547C740.773 402.507 740.747 396.04 737.427 390.733C731.773 381.48 721.026 375.893 710.24 376C645.32 376.093 580.386 375.96 515.466 376.187C511.613 376.12 507.36 375.84 504.386 373.093C499.346 368.64 497.493 361.933 494.386 356.2C488.56 344.64 476.253 336.827 463.413 335.947C457.947 335.56 452.48 335.613 447.013 335.267C467.627 322.48 489.226 311.36 510.213 299.213Z"
          fill="#9BCB63" />
      </g>
    </g>
  </g>
</svg>